<svg fill="none" height="295" viewBox="0 0 529 295" width="529" xmlns="http://www.w3.org/2000/svg"><path d="m37.7256 268.301c-11.8348-16.683-24.3194-28.156-27.88547-25.626-3.35278 2.38 2.39297 16.32 12.94787 31.859h19.1569c-1.3198-2.043-2.7296-4.13-4.2227-6.233" fill="#19892b"/><path d="m42.882 252.961c-7.2622-19.122-16.4607-33.365-20.5467-31.815-4.086 1.553-1.5097 18.312 5.7524 37.435 2.2363 5.886 4.6559 11.309 7.0522 15.952h14.1977c-1.2631-6.186-3.4595-13.676-6.459-21.572" fill="#89c240"/><path d="m54.7362 250.715c0-20.456-3.5428-37.038-7.9121-37.038-4.3692 0-7.912 16.582-7.912 37.038 0 9.073.6966 17.382 1.8564 23.822h12.1147c1.1564-6.44 1.8563-14.749 1.8563-23.822" fill="#19892b"/><path d="m57.6827 270.087c9.5918-18.066 14.241-34.372 10.3816-36.421-3.8593-2.05-14.7642 10.932-24.356 28.998-2.1763 4.097-4.0926 8.1-5.719 11.87h17.2471c.8199-1.444 1.6398-2.927 2.4463-4.447z" fill="#89c240"/><path d="m78.0227 251.938c-3.3095-2.676-15.9008 7.376-28.4387 22.599h19.5968c7.6154-11.283 11.4214-20.509 8.8419-22.599" fill="#19892b"/><path d="m101.479 142.638c0 23.483 19.034 42.522 42.517 42.522s42.516-19.036 42.516-42.522c0-23.485-19.033-42.521-42.516-42.521s-42.517 19.036-42.517 42.521z" fill="#3cb54a"/><path d="m115.041 101.324c0 15.992 12.965 28.958 28.955 28.958 15.991 0 28.956-12.966 28.956-28.958 0-15.9929-12.965-28.959-28.956-28.959-15.99 0-28.955 12.9661-28.955 28.959z" fill="#89c240"/><path d="m143.995 151.148 17.011-17.016h13.701" stroke="#19892b" stroke-linecap="round" stroke-linejoin="round" stroke-width="1.93326"/><path d="m143.995 101.533v172.566" stroke="#19892b" stroke-linecap="round" stroke-linejoin="round" stroke-width="1.93326"/><path d="m143.995 175.313-20.767-20.769" stroke="#19892b" stroke-linecap="round" stroke-linejoin="round" stroke-width="1.93326"/><path d="m174.872 128.559h-.327v4.73h.327z" fill="#2b5e8b"/><path d="m170.834 128.559h-.326v4.73h.326z" fill="#2b5e8b"/><path d="m167.391 124.323h-12.948c-.296 0-.386.4-.123.53l.86.423c.037.02.08.03.123.03h-2.589c-.297 0-.387.4-.124.53l.86.423c.04.02.08.03.124.03h12.088c.153 0 .28-.126.28-.28v-.423c0-.153-.124-.28-.28-.28h1.729c.154 0 .28-.123.28-.28v-.423c0-.154-.123-.28-.28-.28" fill="#2b5e8b"/><path d="m182.476 111.596v2.577 2.483l3.309-2.483z" fill="#2b5e8b"/><path d="m183.898 120.386c0 5.467-4.432 9.9-9.898 9.9-2.376 0-4.559-.84-6.266-2.237l16.164-12.493z" fill="#b5e3f4"/><path d="m160.933 124.329 16.304-12.536c.709-.68 1.669-1.1 2.729-1.1 2.176 0 3.943 1.763 3.943 3.943 0 .094 0 .184-.01.274v.646l-16.161 12.493h-3.086c-2.056 0-3.719-1.667-3.719-3.72" fill="#69c4ea"/><path d="m.155273 152.718c0 31.505 25.539127 57.047 57.040627 57.047s57.0411-25.542 57.0411-57.047-25.5396-57.0476-57.0411-57.0476-57.040627 25.5426-57.040627 57.0476" fill="#27a627"/><path d="m13.9492 90.884c0 23.886 19.3602 43.248 43.2429 43.248 23.8828 0 43.2429-19.362 43.2429-43.248 0-23.8856-19.3601-43.248-43.2429-43.248-23.8827 0-43.2429 19.3624-43.2429 43.248z" fill="#3cb54a"/><path d="m33.7969 39.3765c0 13.1761 10.6782 23.8556 23.8527 23.8556s23.8528-10.6795 23.8528-23.8556c0-13.176-10.6783-23.8555-23.8528-23.8555s-23.8527 10.6795-23.8527 23.8555z" fill="#3cb54a"/><path d="m57.1953 129.316 18.4103-18.412" stroke="#19892b" stroke-linecap="round" stroke-linejoin="round" stroke-width="1.93326"/><path d="m57.1953 87.2976v186.8014" stroke="#19892b" stroke-linecap="round" stroke-linejoin="round" stroke-width="1.93326"/><path d="m57.196 167.147-22.4763-22.475" stroke="#19892b" stroke-linecap="round" stroke-linejoin="round" stroke-width="1.93326"/><path d="m201.104 154.381c0 26.255 21.282 47.54 47.534 47.54s47.535-21.285 47.535-47.54-21.283-47.54-47.535-47.54-47.534 21.285-47.534 47.54" fill="#27a627"/><path d="m212.6 102.852c0 19.905 16.133 36.041 36.036 36.041s36.036-16.136 36.036-36.041c0-19.9046-16.133-36.0402-36.036-36.0402s-36.036 16.1356-36.036 36.0402z" fill="#3cb54a"/><path d="m229.139 59.9285c0 10.9802 8.898 19.8799 19.877 19.8799s19.878-8.8997 19.878-19.8799-8.899-19.8799-19.878-19.8799-19.877 8.8997-19.877 19.8799z" fill="#3cb54a"/><path d="m248.639 134.879 15.342-15.344" stroke="#19892b" stroke-linecap="round" stroke-linejoin="round" stroke-width="1.61108"/><path d="m248.639 99.8633v155.6697" stroke="#19892b" stroke-linecap="round" stroke-linejoin="round" stroke-width="1.61108"/><path d="m248.638 166.405-18.731-18.729" stroke="#19892b" stroke-linecap="round" stroke-linejoin="round" stroke-width="1.61108"/><path d="m111.044 231.592c.93 10.06-4.366 21.356-4.749 21.392-.233.02-7.6621-10.099-8.592-20.155-.9298-10.057-1.3531-15.7 3.759-16.343 5.686-.717 8.652 5.05 9.582 15.109" fill="#269035"/><path d="m106.239 258.971c-2.843-5.103-6.8793-9.393-11.9285-12.646-1.9197-1.237-4.0294-2.317-6.3057-2.483-2.2762-.167-4.7525.763-5.879 2.75-1.0431 1.836-.7299 4.229.3999 6.016 1.1265 1.787 2.9496 3.03 4.8659 3.913 3.6827 1.697 7.7787 2.203 11.7014 3.217 2.686.693 5.243 1.51 7.342 3.01z" fill="#89c240"/><path d="m107.378 269.644c1.44-3.303 4.246-5.646 7.312-7.886 3.647-2.667 7.676-4.883 10.789-8.157 1.619-1.706 2.993-3.746 3.422-6.059.43-2.313-.23-4.923-2.066-6.393-1.986-1.59-4.932-1.534-7.219-.42-2.289 1.11-4.026 3.1-5.502 5.169-4.773 6.694-7.319 14.376-7.466 22.483.267.46.524.9.73 1.263" fill="#61b967"/><path d="m102.516 224.762c2.739 12.253 4.439 30.882 4.439 49.772" stroke="#61b967" stroke-linecap="round" stroke-miterlimit="10" stroke-width="1.14063"/><path d="m395.471 131.331c0 24.778-20.084 44.864-44.86 44.864s-44.859-20.086-44.859-44.864c0-24.779 20.083-44.8649 44.859-44.8649s44.86 20.0859 44.86 44.8649z" fill="#c3df9e"/><path d="m394.187 88.3325c0 18.7855-15.227 34.0115-34.007 34.0115-18.781 0-34.008-15.229-34.008-34.0115 0-18.7824 15.224-34.0117 34.008-34.0117 18.783 0 34.007 15.2293 34.007 34.0117z" fill="#3cb54a"/><path d="m363.46 116.691-14.481-14.482" stroke="#19892b" stroke-linecap="round" stroke-linejoin="round" stroke-width="1.93326"/><path d="m363.459 83.646v189.486" stroke="#19892b" stroke-linecap="round" stroke-linejoin="round" stroke-width="1.93326"/><path d="m363.459 146.444 17.674-17.676" stroke="#19892b" stroke-linecap="round" stroke-linejoin="round" stroke-width="1.93326"/><path d="m505.176 47.4261c0 18.6025-15.078 33.6818-33.678 33.6818s-33.678-15.0793-33.678-33.6818c0-18.6024 15.078-33.6817 33.678-33.6817s33.678 15.0793 33.678 33.6817" fill="#27a627"/><path d="m528.936 123.036c0 33.189-26.902 60.094-60.087 60.094-33.184 0-60.086-26.905-60.086-60.094 0-33.1882 26.902-60.0936 60.086-60.0936 33.185 0 60.087 26.9054 60.087 60.0936z" fill="#3cb54a"/><path d="m481.074 85.5711c0 27.6419-22.407 50.0509-50.046 50.0509-27.638 0-50.045-22.409-50.045-50.0509 0-27.642 22.407-50.0477 50.045-50.0477 27.639 0 50.046 22.409 50.046 50.0477" fill="#27a627"/><path d="m450.425 121.563-19.394-19.396" stroke="#19892b" stroke-linecap="round" stroke-linejoin="round" stroke-width="1.93326"/><path d="m450.426 77.3015v196.8305" stroke="#19892b" stroke-linecap="round" stroke-linejoin="round" stroke-width="1.93326"/><path d="m450.426 161.414 23.676-23.679" stroke="#19892b" stroke-linecap="round" stroke-linejoin="round" stroke-width="1.93326"/><path d="m394.993 269.784c-9.018-12.713-18.534-21.456-21.25-19.529-2.556 1.813 1.823 12.436 9.869 24.279h14.597c-1.006-1.557-2.079-3.147-3.216-4.75z" fill="#3cb54a"/><path d="m398.922 258.095c-5.536-14.573-12.545-25.426-15.657-24.246-3.113 1.183-1.15 13.956 4.382 28.525 1.703 4.487 3.55 8.62 5.376 12.156h10.818c-.96-4.713-2.636-10.422-4.919-16.439" fill="#19892b"/><path d="m407.954 256.381c0-15.589-2.7-28.225-6.029-28.225-3.33 0-6.029 12.636-6.029 28.225 0 6.916.533 13.246 1.413 18.153h9.231c.884-4.907 1.414-11.24 1.414-18.153" fill="#3cb54a"/><path d="m410.201 271.147c7.309-13.766 10.851-26.192 7.912-27.755-2.94-1.564-11.252 8.333-18.56 22.099-1.657 3.123-3.12 6.173-4.36 9.046h13.145c.626-1.1 1.25-2.23 1.866-3.39" fill="#89c240"/><path d="m425.7 257.315c-2.522-2.04-12.118 5.62-21.673 17.222h14.935c5.802-8.599 8.705-15.629 6.738-17.222z" fill="#3cb54a"/><path d="m422.845 228.099c0 7.963 6.309 23.793 14.267 23.613 6.516-.147 14.558-15.643 14.561-23.606 0-7.963-4.506-21.529-14.434-21.572-10.302-.04-14.391 13.602-14.391 21.562" fill="#269035"/><path d="m423.238 264.251c2.269 2.066 10.028 4.49 11.348 3.173 1.316-1.32-1.247-8.936-3.49-11.033-3.059-2.856-7.888-3.89-10.058-1.72-2.169 2.17-.6 7.027 2.2 9.58" fill="#3cb54a"/><path d="m437.776 216.826s-.287 22.143-.28 38.392c.003 10.653-.023 18.972-.023 18.972" stroke="#7ec680" stroke-linecap="round" stroke-miterlimit="10" stroke-width="1.35715"/><path d="m453.29 251.912-15.631 15.919" stroke="#7ec680" stroke-linecap="round" stroke-miterlimit="10" stroke-width="1.35715"/><path d="m447.481 225.049-9.892 17.626" stroke="#7ec680" stroke-linecap="round" stroke-miterlimit="10" stroke-width="1.35715"/><path d="m424.157 257.358 12.961 12.729" stroke="#7ec680" stroke-linecap="round" stroke-miterlimit="10" stroke-width="1.35715"/><path d="m429.428 222.823 7.955 9.943" stroke="#7ec680" stroke-linecap="round" stroke-miterlimit="10" stroke-width="1.35715"/><path d="m455.409 257.868c-2.316 2.316-8.592 4.836-10.908 2.52-2.316-2.317.203-8.593 2.52-10.91 2.316-2.316 6.072-2.316 8.388 0 2.316 2.317 2.316 6.073 0 8.39" fill="#269035"/><path d="m526.456 206.743c-.034.027-.07.033-.103.043v-.069c.033.016.066.026.103.026z" fill="#e20613"/><path d="m510.387 213.097c-2.856.756-5.159 1.373-6.965 1.863.217-3.583 1.556-7.533 1.763-8.253 4.816-.7 11.235-.57 14.987-.39 1.064.103 1.727.193 1.757.207-.08-.084-.28 2.096-.247 2.069.737.117 1.413.217 2.057.314-1.85.69-6.763 2.443-13.348 4.186" fill="#1a1a1b" opacity=".002197"/><path d="m423.013 168.161.796-.454 1.62-.24s-.573 1.627-2.33 1.83z" fill="#333" opacity=".003375"/><path d="m163.639 171.497c2.306 2.173 4.906.903 4.906.903l-.034-.606c-2.209 1.106-4.872-.297-4.872-.297z" fill="#000" opacity=".003375"/><path d="m174.688 187.581s-.007 0-.014.007c.007-.003.011-.003.014-.007z" fill="#c6ad7f"/><path d="m172.021 177.491c-1.16 1.776-2.316 3.55-3.476 5.326l-1.697 2.597c-.29.443-.58.886-.87 1.33-.293.45-.753 1.23-1.399.853-.09-.05-.137.447-.124.467.507.716 1.997-.247 2.347-.78.666-1.02 1.549-2.524 2.213-3.543l3.146-6.18c.056-.087-.087-.154-.144-.07" fill="#1a1a1b" opacity=".003375"/><path d="m170.318 177.325c-1.027.703-2.05 1.406-3.076 2.11-.5.343-.99.726-1.513 1.029-.7.407-1.293-.076-1.897-.423-1.966-1.126-3.926-2.34-5.435-4.06-.067-.076-.197.014-.13.09 1.589 1.814 2.966 3.26 5.039 4.44.39.223 1.563.71 2.036.64.573-.083 1.65-.863 2.11-1.18l2.953-2.52c.083-.056-.007-.19-.09-.13" fill="#1a1a1b" opacity=".003375"/><path d="m171.668 174.361s-3.276 2.59-3.676 2.856c-.4.267-.973.754-1.506.687-.53-.067-1.327-.377-1.327-.267s.863.797 1.373.71c.51-.09 2.413-1.35 3.586-2.26 1.174-.906 2.08-1.416 1.55-1.726" fill="#1a1a1b" opacity=".003375"/><path d="m187.429 20.5751c-.4 0-.787.04-1.167.11.014-.2.024-.4033.024-.6066 0-5.0398-4.086-9.1263-9.125-9.1263-1.553 0-3.013.39-4.293 1.0733-1.276-6.66966-7.139-11.712756-14.184-11.712756-5.373 0-10.059 2.936526-12.545 7.289656-2.273-2.22323-5.379-3.59316-8.809-3.59316-6.958 0-12.597 5.63973-12.597 12.59936 0 .55.036 1.0933.103 1.6233-1.06-.4033-2.206-.6266-3.406-.6266-5.286 0-9.569 4.2831-9.569 9.5695h82.16c0-3.6431-2.953-6.5963-6.595-6.5963" fill="#dff2f8"/><path d="m306.886 35.7834c.4 0 .787.04 1.167.11-.014-.2-.024-.4033-.024-.6067 0-5.0397 4.086-9.1262 9.126-9.1262 1.553 0 3.012.39 4.292 1.0733 1.277-6.6697 7.139-11.7128 14.184-11.7128 5.373 0 10.059 2.9365 12.545 7.2897 2.273-2.2233 5.379-3.5932 8.809-3.5932 6.958 0 12.598 5.6397 12.598 12.5994 0 .55-.037 1.0933-.104 1.6233 1.06-.4034 2.207-.6267 3.406-.6267 5.286 0 9.569 4.2832 9.569 9.5696h-82.16c0-3.6432 2.953-6.5964 6.596-6.5964" fill="#dff2f8"/><path d="m222.186 225.937s.113-3.433 1.803-5.067c1.689-1.633 3.716-1.803 4.166-1.353.449.45.056 2.76-1.24 3.943-1.293 1.184-4.729 2.477-4.729 2.477z" fill="#3cb54a"/><path d="m217.699 220.257s.847-3.496-.006-5.926c-.69-1.967-2.097-3.317-3.28-3.093-.686.13-1.069 2.303-.393 4.729.517 1.85 3.679 4.29 3.679 4.29" fill="#3cb54a"/><path d="m232.781 235.253s-5.586-3.636-7.789-4.856c-2.866-1.587-7.012-.843-8.365.733-1.353 1.577-3.696 4.553-3.696 4.553s-3.346-2.073-6.273-2.75c-2.926-.676-5.132-.39-7.562 1.03-1.243.727-2.576 1.634-3.832 2.964-.927.983-3.56 4.769-3.56 4.769l41.073-6.446z" fill="#5c3f33"/><path d="m214.29 238.156-1.347-2.49-.013.02s-2.7-1.673-5.373-2.503c-.473 1.007-1.033 2-1.503 2.247-1.356.706-5.219 3.516-7.595 5.213l15.831-2.483z" fill="#1a1a1b" opacity=".125"/><path d="m232.782 235.253s-5.023-3.27-7.422-4.649c-.5.776-1.127 1.516-1.86 1.899-1.346.704-6.159 3.757-9.092 5.633z" fill="#1a1a1b" opacity=".125"/><path d="m316.22 158.05c-5.775.06-12.011 5.386-7.905 11.969 1.506 2.414-1.476 6.234 1.933 7.92 1.953.967 2.67-.8 6.712-.433 4.6.416 8.895-4.103 9.075-8.833.18-4.727-4.829-10.676-9.815-10.626" fill="#bca68c"/><path d="m324.979 182.452s-2.917-.686-3.167-1.1c-.926-1.543-.336-9.313-.336-9.313l-6.622 2.454s.203 3.406-.087 5.646c-.123.96-.56.99-1.453 1.353l-.787 3.987 2.956 1.74 9.202-.217.29-4.547" fill="#ffdbb3"/><path d="m315.549 178.239c1.91-1.007 2.687-2.843 2.763-4.153v-.013c.02-.33-.01-.624-.073-.86l-3.389 1.256s.123 2.084.036 4.04c.227-.067.45-.153.663-.263" fill="#1a1a1b" opacity=".001728"/><path d="m301.266 239.84 1.86 10.879.387 1.56-9.309 4.91-.936-.53s4.925-4.783 5.772-6.217c.423-.72-2.253-9.819-2.253-9.819z" fill="#ffdbb3"/><path d="m302.416 249.466 1.603 4.306-14.201 6.193s-.626-1.55 1.653-2.856c2.28-1.31 4.116-2.39 5.229-4.93l.24-1.157 5.479-1.553z" fill="#006316"/><path d="m304.005 255.462-13.174 5.233c-.36.144-.77-.04-.9-.406l-.117-.324 14.201-6.193.327.96c.1.293-.05.617-.337.73" fill="#269435"/><path d="m268.877 227.137c1.297 9.046-5.539 17.509-15.26 18.902-9.726 1.394-18.661-4.809-19.957-13.856-1.297-9.046 5.536-17.509 15.261-18.902s18.66 4.81 19.956 13.853" fill="#9ed4f0"/><path d="m246.835 213.807c-.237 1.157 1.609.037 2.019.084.584.076.787.686 1.367.713.81.043.726-.53 1.336.13.2.183.6.98.757 1.277.33.7.256.603-.484 1.03-.373.213-1.149.38-1.499.75-.3.31 0 1.173-.927.719-.536.664-.05 2.464-1.373 1.637-.263-.23-.936-.933-1.086-1.177-.387-.689.176-.773.143-1.406-.03-.21-.333-.327-.42-.527-.007-.053-.007-.853.063-.756-.293-.44-1.239-.25-1.413-.65-.08-.15.277-1.267.377-1.39.25-.25.876-.287 1.11-.267" fill="#8ec641"/><path d="m233.648 228.64c-.08.616-.02 1.52.076 2.2.064.843.004 2.2.66 2.2.69.006.377-.587.443-.917.664.227.314.597.487.997.173.403.433.633.816.896.844.68 1.334.504 2.383.62.93.08 1.197.737 2.037.99 1.07.273 1.4.173 1.39 1.293-.11 1.244.449 2.337 1.589 3.08.63.39 1.273.084 1.77.334.67.276.52.833.773 1.383.55 1.04 1.657 1.95 2.36 2.863.65.92 1.949 1.59 3.159 1.627-.493-.25-1.07-.647-1.409-1.027-.404-.423-.714-.967-.33-1.5.25-.25.773-.217.959-.51.137-.233-.076-.523 0-.8.184-.72.61-.94 1.067-1.38.713-.636.43-.593.43-1.396.043-1.287 2.01-1.997.053-2.837-1.036-.44-2.489-.55-3.613-.39-.346-1.603-1.929-1.057-3.289-1.343-.657-.173-1.303-.293-1.96-.467-.943-.183-1.453-.54-1.696.563-.527-.083-1.127.537-1.547.01-.339-.376.257-.996-.193-1.359-.58-.45-.756.323-1.16-.474-.23-.393.157-1.303-.676-1.13.143 1.794-1.48.48-1.673-.453-.177-.83.41-.753.94-1.04.266-.143.809-.757 1.106-.693.12.036 1.616 2.863 1.38.816-.067-.47-.713-.966-.5-1.476s.87-.337 1.17-.647c.396-.43.46-1.186.86-1.616.446-.49.989-1.104 1.506-1.497.453-.44 1.156-.327 1.62-.713.606-.567.09-.974 1.046-1.11.68-.044 1.037.44.95-.564-.053-.366-.353-.856-.613-1.086-.517-.407-.98-.82-1.44-1.234-.716-.589-.796.06-1.296-.239-.184-.08-1.087-1.177-.46-1.214.343.004.483.57.82.524.283-.04.23-.407.333-.474.266-.143 1.01-.57 1.083-.85.087-.6-.78-.636-1.05-.916-.326-.274-.213-.29-.37-.587-.14-.193.01-.32-.186-.507-.197-.183-.82.277-.827-.15.027-.216.59-.296.693-.366 1.527-.967-.63-1.19-.933-.507 0 0-7.459 3.177-8.732 13.073" fill="#8ec641"/><path d="m261.159 215.96c-.15-1.046-4.276-.869-2.739 1.044.546.613.503.3.48.943-.017.27-.444.117-.27.52.03.21.579.45.756.48 1.023.333 1.413-.15 2.183.807l.047-.06.006.053c-.939.243-1.786.737-1.876 1.71-.933.293-.667-.65-.96-1.09-.376-.64-1.38-.817-1.723-.02-.536 1.463 2.476 1.673 2.283 2.713-.76-.103-1.25.073-1.146.807.07.096.396.37.483.57.103.306-.15.556.017.906 1.056 1.77 1.969-1.456 2.496-1.796.946-.617 3.539.666 1.913 1.326-.71.264-.977-.393-1.65-.296-.786.113-.546.986-1.063 1.38-.573.403-1.077.1-1.483.853-.27.52-.243 1.103-.57 1.63-.32.58-.883 1.033-.843 1.72.033.636.543.99.74 1.55.21.663-.154.93.546 1.416.437.257 1.287.564 1.727.447.556-.133.953-.563 1.569-.653.394-.057 1.417-.524 1.6-.444.593.13.443.684.383 1.067-.086.6-.196 1.04-.16 1.677 0 .8.484 1.03-.376 2.989-.234.53-2.11 2.49-1.337 3.074.644.496 2.637-1.33 3.03-1.76.773-1.017 1.886-2.35 2.429-3.74.447-1.14.96-2.443 1.077-3.633.22-2.06.513-4.413-.24-6.753-.6-1.87-1.533-4.11-2.9-5.623-.886-.994-1.253-1.527-2.346-2.384-.81-.63-1.08-1.243-2.08-1.42" fill="#8ec641"/><path d="m353.162 291.83c-.114 1.64-42.797 2.967-95.438 2.967s-95.324-1.327-95.438-2.967z" fill="#ebebeb"/><path d="m311.348 228.313c0 1.237 4.242 2.24 9.478 2.24s9.479 0 9.479-2.24c0-2.52-4.243-2.24-9.479-2.24s-9.478 1.004-9.478 2.24z" fill="#2daa4a"/><path d="m280.894 207.275 1.909 1.313s-.98 3.193-1.03 3.416c-.05.224-.703.174-1.046.12-.343-.05-.997-.413-.997-.413z" fill="#979798"/><path d="m293.86 209.094c-.57.357-1.1.42-1.496-.06-.23-.276-.563-.386-.837-.58-.913-.653-1.826-1.27-2.706-1.493-.88-.237-1.64.03-2.306.79-.28.307-.527.72-.823 1.173-.287.444-.584.897-.907 1.334-.273.37-.563.729-.893 1.079-.34.35-.673.697-1.24.97-.353.164-.746.22-1.113.11-.367-.103-.91-.073-1.137-.433-.213-.463-.259-.867-.296-1.153-.037-.287-.06-.657-.093-.92-.067-.52 0-1.167.08-1.697.076-.546.209-1.046.319-1.503.11-.453.207-.88.2-1.133 0-.13-.016-.19-.046-.247-.027-.06-.08-.133-.174-.217-.19-.17-.509-.333-.846-.463-.347-.133-.697-.23-1.107-.347-.799-.226-1.593-.51-2.372-.696-.287-.067-.12-.07-.39-.087-.147-.05-.224-.07-.327-.14-.283-.183-.393-.61-.19-1.1.157-.373.39-.62.71-.58.74.097.933.227 1.6.4l1.989.56c.56.18 1.15.317 1.763.77.234.184.487.423.684.77.203.34.32.783.336 1.163.023.77-.156 1.29-.266 1.77-.184.697-.324 1.297-.33 1.884 0 .146 0 .283.016.44.014.16.034.313.057.463.027.143.057.283.093.4.02.06.037.113.057.157.007.02.013.03.023.043.04.067.117.083.177.05 0 0 .057-.027.11-.06s.106-.07.163-.117c.113-.086.23-.196.347-.313.47-.48.913-1.093 1.34-1.717l.823-1.24c.48-.71 1.123-1.42 1.969-1.816.847-.41 1.81-.377 2.6-.134.833.254 1.55.67 2.223 1.097.67.433 1.296.89 1.913 1.31.093.06.183.123.263.203.32.317.32.444.034 1.31" fill="#979798"/><path d="m316.86 177.672c-3.17.894-6.203.51-6.966-2.589 0 0-1.05-4.26-.123-11.123.006-.09.843-1.024.843-1.024 1.763-1.176 4.716-2.099 7.712-.776 5.036 2.226 3.763 6.336 3.756 7.376-.007.907.157 2.063-.606 3.7 0 0-1.444 3.543-4.613 4.436" fill="#ffdbb3"/><path d="m281.739 202.381c1.05-.763 2.837-.576 4.196-.606 4.063-.087 8.269-.244 12.115-1.29 1.81-.494 9.992-3.657 12.475-5.357 3.286-2.25 3.143-2.546 4.089-4.796 1.027-2.443 2.403-6.557-1.543-5.44-1.893.537-6.036 3.557-7.325 4.617-1.207.986-2.513 1.949-3.777 2.946-1.979 1.567-4.116 3.197-6.892 4.097-1.506.49-2.889 1.169-4.429 1.599-1.146.32-5.516 1.32-6.916 1.61-2.842.584-6.978-.286-8.698 1.994-.267.353-.603.88 0 1.09.743.253 1.77-.187 2.42-.424 1.229-.45 2.033.59 3.146.477.46-.047.803-.267 1.139-.513" fill="#ffdbb3"/><g stroke-miterlimit="10"><g stroke="#b7b6b8"><g stroke-width=".386653"><path d="m182.363 271.948 4.053 16.359"/><path d="m178.533 276.968 16.287 1.666"/><path d="m179.811 275.351 12.954 7.22"/><path d="m179.811 275.351 12.954 7.22"/><path d="m181.232 274.001 8.532 12.133"/><path d="m174.316 273.928-4.052-16.359"/><path d="m178.147 268.908-16.288-1.666"/><path d="m176.871 270.525-12.955-7.22"/><path d="m176.871 270.525-12.955-7.22"/><path d="m175.448 271.875-8.529-12.133"/><path d="m179.329 276.961-16.357 4.053"/><path d="m174.31 273.131-1.666 16.29"/><path d="m175.926 274.408-7.219 12.956"/><path d="m175.926 274.408-7.219 12.956"/><path d="m177.277 275.831-12.131 8.53"/><path d="m177.35 268.915 16.357-4.053"/><path d="m182.369 272.745 1.667-16.29"/><path d="m180.753 271.468 7.219-12.956"/><path d="m180.753 271.468 7.219-12.956"/><path d="m179.402 270.045 12.132-8.53"/><path d="m181.886 275.081-8.702 14.436"/><path d="m175.631 275.925 10.335 12.696"/><path d="m177.673 275.685 4.056 14.266"/><path d="m177.673 275.685 4.056 14.266"/><path d="m179.636 275.735-2.55 14.612"/><path d="m174.797 270.795 8.698-14.436"/><path d="m181.053 269.951-10.338-12.696"/><path d="m179.006 270.192-4.056-14.266"/><path d="m179.006 270.192-4.056-14.266"/><path d="m177.047 270.141 2.546-14.612"/><path d="m176.198 276.485-14.434-8.703"/><path d="m175.354 270.225-12.695 10.339"/><path d="m175.593 272.271-14.264 4.057"/><path d="m175.593 272.271-14.264 4.057"/><path d="m175.544 274.235-14.611-2.55"/><path d="m180.483 269.395 14.435 8.7"/><path d="m181.326 275.651 12.695-10.339"/><path d="m181.086 273.605 14.264-4.057"/><path d="m181.086 273.605 14.264-4.057"/><path d="m181.137 271.645 14.611 2.546"/></g><path d="m169.711 256.329c2.59-1.367 5.539-2.137 8.672-2.137 10.285 0 18.623 8.34 18.623 18.626 0 1.107-.096 2.19-.279 3.243" stroke-width="5.52914"/></g><path d="m178.307 290.244c9.584 0 17.354-7.771 17.354-17.356s-7.77-17.356-17.354-17.356-17.354 7.771-17.354 17.356 7.77 17.356 17.354 17.356z" stroke="#35221b" stroke-width="3.09322"/><path d="m178.307 288.901c8.842 0 16.01-7.169 16.01-16.013 0-8.843-7.168-16.013-16.01-16.013-8.843 0-16.011 7.17-16.011 16.013 0 8.844 7.168 16.013 16.011 16.013z" stroke="#b7b6b8" stroke-width="1.15996"/></g><path d="m182.706 272.888c0 2.43-1.97 4.4-4.4 4.4-2.429 0-4.399-1.97-4.399-4.4s1.97-4.4 4.399-4.4c2.43 0 4.4 1.97 4.4 4.4z" fill="#35221b"/><g stroke="#b7b6b8" stroke-miterlimit="10" stroke-width=".386653"><path d="m338.697 265.545 5.209 21.026"/><path d="m333.773 271.998 20.934 2.143"/><path d="m335.414 269.918 16.651 9.28"/><path d="m335.414 269.918 16.651 9.28"/><path d="m337.244 268.185 10.962 15.593"/><path d="m328.359 268.092-5.213-21.026"/><path d="m333.278 261.638-20.933-2.143"/><path d="m331.638 263.719-16.651-9.28"/><path d="m331.638 263.719-16.651-9.28"/><path d="m329.808 265.452-10.961-15.593"/><path d="m334.799 271.988-21.024 5.21"/><path d="m328.348 267.068-2.143 20.933"/><path d="m330.425 268.708-9.279 16.649"/><path d="m330.425 268.708-9.279 16.649"/><path d="m332.161 270.538-15.594 10.963"/><path d="m332.254 261.648 21.023-5.209"/><path d="m338.703 266.568 2.143-20.932"/><path d="m336.627 264.929 9.278-16.65"/><path d="m336.627 264.929 9.278-16.65"/><path d="m334.891 263.099 15.594-10.963"/><path d="m338.08 269.575-11.182 18.552"/><path d="m330.041 270.655 13.284 16.319"/><path d="m332.668 270.348 5.212 18.336"/><path d="m332.668 270.348 5.212 18.336"/><path d="m335.191 270.415-3.273 18.779"/><path d="m328.971 264.062 11.181-18.553"/><path d="m337.011 262.978-13.284-16.316"/><path d="m334.384 263.288-5.212-18.335"/><path d="m334.384 263.288-5.212-18.335"/><path d="m331.861 263.222 3.273-18.779"/><path d="m330.771 271.375-18.55-11.183"/><path d="m329.688 263.332-16.317 13.289"/><path d="m329.998 265.961-18.334 5.214"/><path d="m329.998 265.961-18.334 5.214"/><path d="m329.931 268.482-18.777-3.274"/><path d="m336.281 262.262 18.551 11.183"/><path d="m337.363 270.305 16.318-13.29"/><path d="m337.053 267.675 18.333-5.213"/><path d="m337.053 267.675 18.333-5.213"/><path d="m337.121 265.155 18.777 3.273"/></g><path d="m339.137 266.752c0 3.123-2.533 5.653-5.653 5.653-3.119 0-5.652-2.533-5.652-5.653s2.533-5.653 5.652-5.653c3.12 0 5.653 2.533 5.653 5.653z" fill="#1a1a1b"/><path d="m184.302 238.366-5.622 32.989" stroke="#35221b" stroke-linecap="round" stroke-miterlimit="10" stroke-width="3.47988"/><path d="m330.762 267.222h-135.525v4.383h135.525z" fill="#1a1a1b"/><path d="m357.016 266.584c.016-13.077-10.571-23.692-23.647-23.708-13.076-.015-23.689 10.573-23.705 23.65-.016 13.078 10.571 23.692 23.647 23.708s23.689-10.572 23.705-23.65z" stroke="#1a1a1b" stroke-miterlimit="10" stroke-width="4.21838"/><path d="m355.051 266.565c0 11.989-9.719 21.706-21.703 21.706-11.985 0-21.703-9.717-21.703-21.706s9.715-21.706 21.703-21.706 21.703 9.717 21.703 21.706z" stroke="#b7b6b8" stroke-miterlimit="10" stroke-width="1.15996"/><path d="m334.538 271.461c.066-.083 1.869.207 2.316-.18 5.146-4.446-7.982-8.672-10.835-9.379-2.589-.64-5.742-1.38-8.375-1.517-3.846-.203-7.749-.69-11.612-.29-4.672.487-11.134.304-13.864 5.917-.97 2-1.123 3.9-.66 5.526l43.026-.077z" fill="#1a1a1b"/><path d="m264.103 267.789-64.713.949-13.658-29.295 89.682-12.579z" fill="#2daa4a"/><path d="m303.599 269.038c-.603.22-.997.28-.977-.003.01-.163-.16-.217-.23-.333-.483-.767-.966-1.537-1.469-2.283-.22-.324-.474-.62-.707-.927l-1.206-1.54c-.204-.267-.36-.563-.567-.827-.42-.52-.863-1.013-1.3-1.516-.216-.26-.4-.55-.613-.814-.08-.096-.203-.153-.293-.24-.037-.033-.073-.073-.063-.15.036-.213.399-.613.816-.886.317-.207.56-.317.64-.223l1.116 1.296c.154.173.347.31.494.487.23.276.423.583.64.873.31.427.606.863.926 1.283l1.123 1.42c.117.154.23.304.34.46l1.02 1.46 1.056 1.517c.027.036.05.076.057.126.027.2-.057.287-.803.824" fill="#65728e"/><path d="m309.278 275.681c-.596.243-.993.317-1.009.013-.007-.173-.187-.226-.274-.35-.59-.81-1.173-1.62-1.783-2.41-.263-.336-.56-.649-.836-.969l-1.427-1.627c-.24-.28-.436-.6-.683-.87-.49-.55-1.013-1.07-1.52-1.597-.256-.273-.476-.58-.73-.856-.093-.1-.23-.167-.333-.254-.043-.033-.087-.073-.083-.156.016-.227.356-.647.763-.934.31-.219.557-.336.647-.236l1.299 1.35c.18.18.394.326.564.513.27.29.506.61.759.917.367.446.724.903 1.104 1.343l1.319 1.49c.14.157.274.32.404.48l1.223 1.533 1.263 1.593c.03.04.063.08.073.134.05.21-.026.303-.736.893" fill="#65728e"/><path d="m175.857 241.68c.05-.697.893-2.98.34-3.51-.777-.747-1.893.273-2.38.886-.76.967-1.08 2.41-.613 3.517.287.673.92 2.19 1.85 1.643.7-.41.746-1.833.803-2.533" fill="#ffedc7"/><path d="m175.014 244.803c-.113-.014-.033-6.59.72-7.07.347-.22 2.207.25 2.633.35 1.943.447 4.373 1.367 4.836 3.567.923 4.396-6.016 3.453-8.189 3.153z" fill="#1a1a1b"/><path d="m321.64 176.916c-.847-.46-3.899-2.79-.777-5.777 1.873-1.79-.753-3.126-.5-4.746.72-4.62-2.986-4.103-4.585-4.873-.47-.227 1.683-.627 2.139-1.257.597-.82.743-1.226 1.027-1.396.246-.147.306-.26.6-.227 4.925.54 4.952 2.433 7.025 3.503 1.523.787 2.536 1.397 2.963 2.923.567 2.017-1.79 3.737-.833 5.77 1.21 2.57 2.739 3.187 2.019 5.266-.926 2.67-6.355 2.297-9.078.814z" fill="#979798"/><path d="m315.848 241.746h30.038c.647 0 1.173-.523 1.173-1.173v-1.217c0-.646-.526-1.173-1.173-1.173h-30.038c-.647 0-1.173.523-1.173 1.173v1.217c0 .646.523 1.173 1.173 1.173z" fill="#3b3c3d"/><path d="m345.485 240.84-10.358 25.605" stroke="#3b3c3d" stroke-miterlimit="10" stroke-width="1.93326"/><path d="m316.131 240.573 16.454 26.305" stroke="#3b3c3d" stroke-miterlimit="10" stroke-width="1.93326"/><path d="m336.283 266.895c0 1.373-1.113 2.486-2.486 2.486s-2.486-1.113-2.486-2.486c0-1.374 1.113-2.487 2.486-2.487s2.486 1.113 2.486 2.487z" fill="#3b3c3d"/><path d="m317.44 216.234s-15.16 1.733-18.57 2.31c-3.409.577-10.458 1.387-9.988 5.316.47 3.93 5.289 19.533 6.229 22.189.94 2.657 1.793 4.957 1.793 4.957l8.365-1.12s-6.129-18.723-4.519-20.016c2.586-2.08 17.394-2.773 17.394-2.773s5.759-2.08 6.582-5.317c.823-3.236.116-5.779.116-5.779l-7.405.23z" fill="#457eb1"/><path d="m317.44 216.234s-15.16 1.734-18.57 2.31c-3.409.577-10.458 1.387-9.988 5.317.47 3.929 5.289 19.532 6.229 22.189.94 2.656 1.793 4.956 1.793 4.956l8.298-1.187s-6.059-18.655-4.452-19.949c2.586-2.08 17.394-2.773 17.394-2.773s5.759-2.08 6.582-5.316c.823-3.237.116-5.78.116-5.78l-7.405.23z" fill="#1a1a1b" opacity=".003375"/><path d="m280.617 211.694-15.347 58.148" stroke="#35221b" stroke-linecap="round" stroke-miterlimit="10" stroke-width="3.47988"/><path d="m313.054 226.984-11.291 41.721" stroke="#35221b" stroke-linecap="round" stroke-miterlimit="10" stroke-width="3.47988"/><path d="m308.431 257.652 2.936 11.446.55 1.63-9.501 6.057-1.047-.484s4.423-4.603 5.199-6.206c.39-.803-2.846-11.216-2.846-11.216l4.713-1.227z" fill="#ffdbb3"/><path d="m304.679 266.588c0 1.67-1.356 3.027-3.026 3.027s-3.026-1.357-3.026-3.027 1.356-3.026 3.026-3.026 3.026 1.356 3.026 3.026z" fill="#6f6e70"/><path d="m324.976 226.16c-4.669 1.79-15.321 8.113-16.614 8.803s-2.586 1.957-1.177 6.673c1.41 4.717 3.72 14.133 4.57 17.513.873 3.473 1.343 4.623 1.096 5.076 0 0-3.039.953-4.669 1.39-1.48.397-2.983.793-2.983.793s-8.239-23.278-9.178-26.498c-.94-3.22-4.703-8.857 2.703-12.766 7.405-3.91 10.751-6.233 12.334-9.443.797-1.617.763-6.43.763-6.43l15.814.803s1.574 12.466-2.659 14.086" fill="#457eb1"/><path d="m312.138 185.085c.053-.376.123-1.803.123-1.803s1.313-1.723 1.287-1.653c-.47 1.28-.137 3.463 1.396 3.62 4.229.44 6.446-3.78 7.209-3.933.363-.07 1.18-.554 2.216.1 1.41.89 2.263 1.956 2.8 3.696.646 2.1 1.266 3.937 1.246 8.173-.017 3.657 1.083 23.522 1.18 25.139.027.47-9.965 1.24-15.144.46-3.226-.487-2.876-.81-3.94-1.807-.363-.34 1.01-27.738 1.623-31.998" fill="#5a5c5d"/><path d="m294.294 204.434c-.366.074-.733.127-1.129.164-1.17.11-2.223-.624-3.377-.717-1.003-.08-1.956.34-2.736.923-.386.29-.58.55-.803.917-.237.39-.973 1.2-.727 1.613.284.47 1.284.19 1.77.144.7-.067 1.347-.14 1.95-.507.733-.447 1.916-.837 2.746-.493.647.27.463.73 1.39.543 1.07-.217 1.94-.417 3.033-.487 2.093-.133 4.202-.633 6.292-.736 1.646-.08 3.213-.197 4.856-.5 2.313-.427 4.982-1.504 7.052-2.607 3.916-2.083 6.099-3.016 8.749-6.003 1.489-1.68 3.579-3.316 3.476-5.323-.104-2.03-1.067-4.43-3.98-3.376-2.446.883-4.712 3.619-6.312 5.279-1.766 1.834-4.023 3.85-6.422 5.15-.983.53-1.867 1.08-2.913 1.523-2.42 1.027-4.919 1.81-7.362 2.794-.667.266-1.303.563-1.99.783-1.116.36-2.409.68-3.566.913" fill="#ffdbb3"/><path d="m319.091 158.693-3.026 2.883s-1.333-.32-1.783.687-1.19 2.723-3.066 2.527c-.93-.097-1.64.883-1.693 1.756-.054.873-1.45 2.963-1.45 2.963s-3.366-4.853 1.483-8.903c4.943-4.129 9.532-1.913 9.532-1.913" fill="#bca68c"/><path d="m312.398 182.276s-.517 1.883-1.93 3.056c-1.409 1.174-1.603 1.604-1.603 1.604s.57 1.926 1 3.539c.603 2.27.603 5.2.603 5.2l2.91-1.06-.98-12.343z" fill="#5a5c5d"/><path d="m322.093 181.162c.346-.226 2.966-.63 2.403.744-.56 1.373-5.353 5.426-7.489 8.403-1.673 2.333-3.566.3-4.353-1.177-1.089-2.047-1.986-5.143-.856-6.42.706-.796 1.176-1.266 1.393-1.363.12-.053.347-.17.32-.097-.217.617-.627 4.804 2.236 4.124 2.863-.684 5.186-3.454 6.346-4.214" fill="#434445"/><path d="m314.117 181.126s-1.156-.29-1.113 1.05c.057 1.756 1.073 6.156 2.7 4.703 1.476-1.317 3.809-3.467 3.862-3.517l.714-.67s-2.977 2.233-4.363 2.263c-1.783.04-1.946-1.633-2.15-2.429-.203-.794.35-1.4.35-1.4" fill="#5a5c5d"/><path d="m208.911 245.439c-1.223-1.123-3.206-1.123-4.433 0l-.83.764-.83-.764c-1.223-1.123-3.206-1.123-4.432 0-1.377 1.264-1.377 3.314 0 4.577l5.262 4.83 5.263-4.83c1.376-1.263 1.376-3.313 0-4.577" fill="#4b4498"/><path d="m265.349 267.788 9.829-36.788c-4.29 1.993-9.332 5.323-12.908 10.773-7.476 11.393-3.559 18.869-24.563 19.579-13.038.443-20.586 2.943-25.799 7.243l53.438-.81z" fill="#231f20" opacity=".001728"/><path d="m311.314 266.105 1.893 4.186-13.744 7.15s-.733-1.503 1.453-2.963c2.183-1.46 3.943-2.663 4.879-5.276l.16-1.17 5.359-1.924z" fill="#006316"/><path d="m313.315 271.981-12.788 6.12c-.35.167-.77.01-.924-.343l-.136-.317 13.744-7.149.39.936c.12.287-.007.617-.286.753z" fill="#269435"/><path d="m312.342 275.615-5.972 1.846c-.277.087-.57-.07-.657-.347l-.263-.856c-.087-.277.07-.57.346-.657l5.973-1.846c.276-.087.57.07.656.346l.263.857c.087.277-.07.57-.346.657z" fill="#65728e"/><path d="m299.96 259.169-5.819 2.283c-.27.107-.573-.026-.68-.296l-.327-.834c-.106-.27.027-.573.297-.68l5.819-2.283c.27-.107.573.027.68.297l.327.833c.106.27-.027.573-.297.68z" fill="#65728e"/><path d="m323.793 185.535c2.226 1.023 4.609 4.457 3.319 8.076-1.286 3.62-5.206 6.11-5.206 6.11s.344-4.603-1.913-6.126c-2.089-1.41-3.432-1.924-3.432-1.924s.859-2.096 2.699-3.909c1.796-1.764 4.529-2.23 4.529-2.23" fill="#5a5c5d"/><path d="m328.262 189.879c-.147.9-.26 1.83-.347 2.78-.726 7.926-4.319 19.772-7.668 23.855-.787.957-1.427 1.87-1.95 2.717 5.152.176 11.325-.434 11.305-.804-.094-1.616-1.197-21.482-1.18-25.138.007-1.354-.053-2.46-.157-3.41" fill="#1a1a1b" opacity=".001728"/><g fill="#3cb54a"><path d="m195.223 230.477c1.073.853 4.606 1.696 5.153 1.07.546-.627-.827-3.943-1.89-4.81-1.45-1.18-3.633-1.493-4.533-.46s-.053 3.15 1.273 4.2"/><path d="m193.315 220.64c1.073.854 5.135 3.02 5.685 2.39.547-.627-.953-4.11-1.829-5.163-1.627-1.95-4.343-2.78-5.243-1.747-.9 1.034.063 3.467 1.39 4.52"/><path d="m209.364 226.657c-.963 1.103-3.683 2.416-4.783 1.453-1.103-.96-.17-3.836.793-4.936.964-1.104 2.637-1.217 3.737-.257 1.103.963 1.216 2.637.256 3.736"/><path d="m208.348 218.317c-1.033 1.034-4.106 2.277-4.633 1.79-.506-.466.737-3.493 1.79-4.513 1.34-1.3 3.699-2.356 4.429-1.546.617.686-.283 2.966-1.586 4.269z"/><path d="m205.331 213.377c-.443 1.944-2.443 5.37-3.869 5.047-1.427-.327-1.74-4.28-1.297-6.223.443-1.944 1.96-3.257 3.386-2.93 1.427.326 2.223 2.166 1.78 4.11"/></g><path d="m202.532 213.968s-1.726 4.813-1.229 12.049c.326 4.746.583 8.693.583 8.693" stroke="#7ec680" stroke-linecap="round" stroke-miterlimit="10" stroke-width=".607045"/><path d="m208.239 224.067-6.479 7.566" stroke="#7ec680" stroke-linecap="round" stroke-miterlimit="10" stroke-width=".607045"/><path d="m206.694 216.767c-3.142 2.28-5.459 7.89-5.459 7.89" stroke="#7ec680" stroke-linecap="round" stroke-miterlimit="10" stroke-width=".607045"/><path d="m195.427 227.38c2.883 1.383 6.162 5.276 6.162 5.276" stroke="#7ec680" stroke-linecap="round" stroke-miterlimit="10" stroke-width=".607045"/><path d="m194.854 218.417s3.659 3.66 4.809 6.243c1.146 2.583 1.866 4.663 1.866 4.663" stroke="#7ec680" stroke-linecap="round" stroke-miterlimit="10" stroke-width=".607045"/><path d="m213.177 222.443c1.073.854 4.329 1.567 4.616 1.127.307-.47-.85-3.413-1.913-4.28-1.45-1.18-3.376-1.786-4.276-.756-.9 1.033.25 2.856 1.576 3.909" fill="#3cb54a"/><path d="m227.139 216.307c-.77 1.243-3.327 3.26-3.933 2.873-.583-.37.273-3.493 1.233-5.013.997-1.58 2.74-3.203 3.603-2.533.73.563.256 2.81-.9 4.673" fill="#3cb54a"/><path d="m222.523 212.028c-.16 1.986-1.52 5.969-2.457 5.939-.979-.033-1.869-3.95-1.709-5.939.16-1.987 1.003-3.537 2.459-3.42 1.46.116 1.867 1.433 1.707 3.42z" fill="#3cb54a"/><path d="m220.046 214.73s-.047 3.63.45 10.867c.327 4.746.393 5.516.393 5.516" stroke="#7ec680" stroke-linecap="round" stroke-miterlimit="10" stroke-width=".607045"/><path d="m225.788 221.374c-2.532 1.913-5.009 7.096-5.009 7.096" stroke="#7ec680" stroke-linecap="round" stroke-miterlimit="10" stroke-width=".607045"/><path d="m225.862 214.884c-1.876 3.453-5.459 7.89-5.459 7.89" stroke="#7ec680" stroke-linecap="round" stroke-miterlimit="10" stroke-width=".607045"/><path d="m214.359 220.474c2.523 1.906 4.786 3.716 4.786 3.716" stroke="#7ec680" stroke-linecap="round" stroke-miterlimit="10" stroke-width=".607045"/><path d="m216.33 216.081s1.217 4.456 2.363 7.039c1.15 2.584 1.856 3.997 1.856 3.997" stroke="#7ec680" stroke-linecap="round" stroke-miterlimit="10" stroke-width=".607045"/><path d="m321.64 176.916c-.847-.46-3.899-2.79-.777-5.777 1.873-1.79-.753-3.126-.5-4.746.72-4.62-2.986-4.103-4.585-4.873-.47-.227 1.683-.627 2.139-1.257.597-.82.743-1.226 1.027-1.396.246-.147.306-.26.6-.227 4.925.54 4.952 2.433 7.025 3.503 1.523.787 2.536 1.397 2.963 2.923.567 2.017-1.79 3.737-.833 5.77 1.21 2.57 2.739 3.187 2.019 5.266-.926 2.67-6.355 2.297-9.078.814z" fill="#bca68c"/></svg>