<svg width="573" height="139" viewBox="0 0 573 139" fill="none" xmlns="http://www.w3.org/2000/svg">
<g clip-path="url(#clip0_900_161)">
<path d="M190.5 134.336C182.455 122.997 173.968 115.199 171.544 116.918C169.265 118.536 173.17 128.011 180.346 138.573H193.368C192.471 137.184 191.513 135.766 190.498 134.336" fill="#19892B"/>
<path d="M194.005 123.91C189.068 110.912 182.815 101.231 180.037 102.285C177.26 103.341 179.011 114.732 183.948 127.729C185.468 131.73 187.113 135.417 188.742 138.573H198.393C197.534 134.368 196.041 129.277 194.002 123.91" fill="#89C240"/>
<path d="M202.063 122.383C202.063 108.479 199.655 97.2078 196.685 97.2078C193.715 97.2078 191.306 108.479 191.306 122.383C191.306 128.55 191.78 134.198 192.568 138.575H200.804C201.59 134.198 202.066 128.55 202.066 122.383" fill="#19892B"/>
<path d="M204.066 135.55C210.586 123.271 213.747 112.188 211.123 110.794C208.5 109.401 201.087 118.225 194.567 130.505C193.087 133.289 191.784 136.01 190.679 138.573H202.403C202.961 137.592 203.518 136.583 204.066 135.55Z" fill="#89C240"/>
<path d="M217.893 123.214C215.643 121.395 207.084 128.228 198.561 138.575H211.882C217.059 130.906 219.647 124.635 217.893 123.214Z" fill="#19892B"/>
<path d="M74.1368 136.82C70.8055 132.124 67.2912 128.895 66.2874 129.607C65.3436 130.277 66.961 134.201 69.9321 138.574H75.3245C74.953 137.999 74.5562 137.412 74.1359 136.82" fill="#19892B"/>
<path d="M75.5881 132.502C73.5439 127.12 70.9546 123.112 69.8045 123.548C68.6543 123.985 69.3795 128.702 71.4237 134.084C72.0532 135.741 72.7343 137.267 73.4088 138.574H77.4053C77.0497 136.833 76.4315 134.725 75.5872 132.502" fill="#89C240"/>
<path d="M78.9251 131.87C78.9251 126.113 77.9279 121.446 76.698 121.446C75.4681 121.446 74.4708 126.113 74.4708 131.87C74.4708 134.424 74.6669 136.763 74.9934 138.575H78.4035C78.729 136.763 78.9261 134.424 78.9261 131.87" fill="#19892B"/>
<path d="M79.7543 137.323C82.4543 132.238 83.763 127.649 82.6767 127.072C81.5903 126.495 78.5207 130.149 75.8207 135.233C75.2081 136.386 74.6687 137.513 74.2109 138.574H79.0658C79.2965 138.168 79.5273 137.75 79.7543 137.323Z" fill="#89C240"/>
<path d="M85.4799 132.215C84.5483 131.461 81.004 134.291 77.4747 138.575H82.991C85.1346 135.4 86.206 132.803 85.4799 132.215Z" fill="#19892B"/>
<path d="M377.61 136.165C370.608 129.715 363.221 125.279 361.111 126.257C359.128 127.178 362.527 132.567 368.772 138.574H380.107C379.326 137.784 378.492 136.978 377.608 136.165" fill="#19892B"/>
<path d="M380.661 130.234C376.364 122.841 370.922 117.335 368.504 117.934C366.086 118.535 367.611 125.014 371.907 132.407C373.231 134.682 374.662 136.779 376.08 138.574H384.48C383.733 136.182 382.433 133.287 380.659 130.234" fill="#89C240"/>
<path d="M387.675 129.365C387.675 121.457 385.579 115.046 382.994 115.046C380.408 115.046 378.312 121.457 378.312 129.365C378.312 132.873 378.724 136.086 379.411 138.575H386.578C387.263 136.086 387.677 132.873 387.677 129.365" fill="#19892B"/>
<path d="M389.418 136.855C395.093 129.87 397.844 123.566 395.56 122.774C393.277 121.981 386.825 127.001 381.15 133.985C379.862 135.569 378.728 137.116 377.766 138.574H387.971C388.456 138.016 388.941 137.443 389.418 136.855Z" fill="#89C240"/>
<path d="M401.452 129.838C399.494 128.804 392.044 132.69 384.626 138.575H396.221C400.727 134.213 402.979 130.646 401.452 129.838Z" fill="#19892B"/>
<path d="M260.253 48.923C260.253 64.884 273.192 77.825 289.155 77.825C305.119 77.825 318.057 64.8863 318.057 48.923C318.057 32.9597 305.119 20.021 289.155 20.021C273.192 20.021 260.253 32.9597 260.253 48.923Z" fill="#3CB54A"/>
<path d="M269.472 20.8411C269.472 31.7113 278.285 40.5244 289.155 40.5244C300.026 40.5244 308.839 31.7113 308.839 20.8411C308.839 9.97082 300.026 1.15771 289.155 1.15771C278.285 1.15771 269.472 9.97082 269.472 20.8411Z" fill="#89C240"/>
<path d="M289.155 54.7069L300.719 43.1411H310.033" stroke="#19892B" stroke-width="1.13279" stroke-linecap="round" stroke-linejoin="round"/>
<path d="M289.155 20.9839V138.277" stroke="#19892B" stroke-width="1.13279" stroke-linecap="round" stroke-linejoin="round"/>
<path d="M289.155 71.1324L275.039 57.0156" stroke="#19892B" stroke-width="1.13279" stroke-linecap="round" stroke-linejoin="round"/>
<path d="M499.594 69.6338C499.594 81.8391 489.699 91.735 477.492 91.735C465.285 91.735 455.391 81.8408 455.391 69.6338C455.391 57.4267 465.285 47.5325 477.492 47.5325C489.699 47.5325 499.594 57.4267 499.594 69.6338Z" fill="#3CB54A"/>
<path d="M492.544 48.1597C492.544 56.4722 485.805 63.2115 477.492 63.2115C469.18 63.2115 462.44 56.4722 462.44 48.1597C462.44 39.8473 469.18 33.1079 477.492 33.1079C485.805 33.1079 492.544 39.8473 492.544 48.1597Z" fill="#A1DAA6"/>
<path d="M477.492 74.0567L468.65 65.2124H461.527" stroke="#19892B" stroke-width="0.866242" stroke-linecap="round" stroke-linejoin="round"/>
<path d="M477.492 48.2688V137.963" stroke="#19892B" stroke-width="0.866242" stroke-linecap="round" stroke-linejoin="round"/>
<path d="M477.492 86.6171L488.287 75.822" stroke="#19892B" stroke-width="0.866242" stroke-linecap="round" stroke-linejoin="round"/>
<path d="M192.156 74.0421C192.156 90.7148 205.673 104.232 222.346 104.232C239.018 104.232 252.535 90.7148 252.535 74.0421C252.535 57.3693 239.018 43.8523 222.346 43.8523C205.673 43.8523 192.156 57.3693 192.156 74.0421Z" fill="#27A627"/>
<path d="M199.457 41.3195C199.457 53.9598 209.703 64.2065 222.344 64.2065C234.984 64.2065 245.231 53.9598 245.231 41.3195C245.231 28.6791 234.984 18.4324 222.344 18.4324C209.703 18.4324 199.457 28.6791 199.457 41.3195Z" fill="#3CB54A"/>
<path d="M209.961 14.061C209.961 21.0339 215.613 26.6855 222.585 26.6855C229.558 26.6855 235.21 21.0339 235.21 14.061C235.21 7.08818 229.558 1.43652 222.585 1.43652C215.613 1.43652 209.961 7.08818 209.961 14.061Z" fill="#3CB54A"/>
<path d="M222.346 61.6573L232.09 51.9133" stroke="#19892B" stroke-width="0.881968" stroke-linecap="round" stroke-linejoin="round"/>
<path d="M222.346 39.4211V138.277" stroke="#19892B" stroke-width="0.881968" stroke-linecap="round" stroke-linejoin="round"/>
<path d="M222.346 81.6782L210.45 69.7839" stroke="#19892B" stroke-width="0.881968" stroke-linecap="round" stroke-linejoin="round"/>
<path d="M0.365723 75.21C0.365723 91.8828 13.8828 105.4 30.5555 105.4C47.2282 105.4 60.7453 91.8828 60.7453 75.21C60.7453 58.5373 47.2282 45.0203 30.5555 45.0203C13.8828 45.0203 0.365723 58.5373 0.365723 75.21Z" fill="#27A627"/>
<path d="M7.66675 42.4872C7.66675 55.1276 17.9135 65.3743 30.5538 65.3743C43.1942 65.3743 53.4409 55.1276 53.4409 42.4872C53.4409 29.8468 43.1942 19.6001 30.5538 19.6001C17.9135 19.6001 7.66675 29.8468 7.66675 42.4872Z" fill="#3CB54A"/>
<path d="M18.1709 15.229C18.1709 22.2018 23.8226 27.8535 30.7954 27.8535C37.7682 27.8535 43.4199 22.2018 43.4199 15.229C43.4199 8.25614 37.7682 2.60449 30.7954 2.60449C23.8226 2.60449 18.1709 8.25614 18.1709 15.229Z" fill="#3CB54A"/>
<path d="M30.5555 62.8253L40.2995 53.0813" stroke="#19892B" stroke-width="0.881968" stroke-linecap="round" stroke-linejoin="round"/>
<path d="M30.5555 40.5891V139.445" stroke="#19892B" stroke-width="0.881968" stroke-linecap="round" stroke-linejoin="round"/>
<path d="M30.5555 82.8459L18.6595 70.9517" stroke="#19892B" stroke-width="0.881968" stroke-linecap="round" stroke-linejoin="round"/>
<path d="M336.937 68.0953C336.937 83.4666 349.399 95.9284 364.77 95.9284C380.141 95.9284 392.603 83.4666 392.603 68.0953C392.603 52.7241 380.141 40.2622 364.77 40.2622C349.399 40.2622 336.937 52.7241 336.937 68.0953Z" fill="#27A627"/>
<path d="M343.668 37.9269C343.668 49.5805 353.115 59.0274 364.769 59.0274C376.422 59.0274 385.869 49.5805 385.869 37.9269C385.869 26.2732 376.422 16.8264 364.769 16.8264C353.115 16.8264 343.668 26.2732 343.668 37.9269Z" fill="#3CB54A"/>
<path d="M333.997 54.7069C333.997 61.1354 339.208 66.3459 345.636 66.3459C352.065 66.3459 357.275 61.1354 357.275 54.7069C357.275 48.2783 352.065 43.0679 345.636 43.0679C339.208 43.0679 333.997 48.2783 333.997 54.7069Z" fill="#70D17B"/>
<path d="M364.77 56.6775L373.754 47.6941" stroke="#19892B" stroke-width="0.813121" stroke-linecap="round" stroke-linejoin="round"/>
<path d="M364.77 36.1772L364.77 137.62" stroke="#19892B" stroke-width="0.813121" stroke-linecap="round" stroke-linejoin="round"/>
<path d="M364.77 75.1354L353.803 64.1697" stroke="#19892B" stroke-width="0.813121" stroke-linecap="round" stroke-linejoin="round"/>
<path d="M266.755 109.385C267.388 116.223 263.788 123.901 263.527 123.926C263.368 123.939 258.318 117.061 257.686 110.226C257.054 103.391 256.767 99.555 260.242 99.1178C264.107 98.6307 266.123 102.55 266.755 109.388" fill="#269035"/>
<path d="M263.488 127.995C261.556 124.526 258.812 121.61 255.38 119.399C254.075 118.559 252.641 117.825 251.094 117.711C249.546 117.598 247.863 118.23 247.097 119.581C246.388 120.829 246.601 122.456 247.369 123.67C248.135 124.884 249.374 125.729 250.677 126.33C253.18 127.483 255.965 127.827 258.631 128.516C260.457 128.987 262.195 129.542 263.622 130.562L263.488 127.995Z" fill="#89C240"/>
<path d="M264.263 135.249C265.242 133.004 267.15 131.412 269.234 129.889C271.713 128.077 274.452 126.57 276.568 124.345C277.669 123.185 278.602 121.799 278.894 120.226C279.187 118.654 278.738 116.88 277.49 115.881C276.14 114.8 274.137 114.839 272.583 115.596C271.026 116.35 269.846 117.703 268.842 119.109C265.598 123.659 263.867 128.881 263.767 134.391C263.948 134.703 264.123 135.003 264.263 135.249Z" fill="#61B967"/>
<path d="M260.958 104.743C262.82 113.071 263.976 125.734 263.976 138.573" stroke="#61B967" stroke-width="0.668346" stroke-miterlimit="10" stroke-linecap="round"/>
<path d="M455.075 49.185C455.075 64.6385 442.549 77.165 427.095 77.165C411.642 77.165 399.115 64.6385 399.115 49.185C399.115 33.7316 411.642 21.2051 427.095 21.2051C442.549 21.2051 455.075 33.7316 455.075 49.185Z" fill="#C3DF9E"/>
<path d="M454.275 22.3693C454.275 34.0851 444.777 43.5808 433.063 43.5808C421.35 43.5808 411.852 34.083 411.852 22.3693C411.852 10.6555 421.348 1.15771 433.063 1.15771C444.779 1.15771 454.275 10.6555 454.275 22.3693Z" fill="#3CB54A"/>
<path d="M435.109 40.0554L426.077 31.0232" stroke="#19892B" stroke-width="1.03937" stroke-linecap="round" stroke-linejoin="round"/>
<path d="M435.109 19.4465V137.62" stroke="#19892B" stroke-width="1.03937" stroke-linecap="round" stroke-linejoin="round"/>
<path d="M435.109 58.6105L446.132 47.5869" stroke="#19892B" stroke-width="1.03937" stroke-linecap="round" stroke-linejoin="round"/>
<path d="M310.787 90.7887C310.787 99.087 317.514 105.814 325.812 105.814C334.11 105.814 340.837 99.087 340.837 90.7887C340.837 82.4903 334.11 75.7637 325.812 75.7637C317.514 75.7637 310.787 82.4903 310.787 90.7887Z" fill="#C3DF9E"/>
<path d="M311.217 76.3887C311.217 82.68 316.317 87.7791 322.607 87.7791C328.897 87.7791 333.997 82.6789 333.997 76.3887C333.997 70.0985 328.898 64.9983 322.607 64.9983C316.316 64.9983 311.217 70.0985 311.217 76.3887Z" fill="#3CB54A"/>
<path d="M321.509 85.8861L326.359 81.0359" stroke="#19892B" stroke-width="0.558135" stroke-linecap="round" stroke-linejoin="round"/>
<path d="M321.509 74.8191V138.277" stroke="#19892B" stroke-width="0.558135" stroke-linecap="round" stroke-linejoin="round"/>
<path d="M321.509 95.8498L315.589 89.9302" stroke="#19892B" stroke-width="0.558135" stroke-linecap="round" stroke-linejoin="round"/>
<path d="M70.6714 67.0287C70.6714 79.479 80.7636 89.5711 93.2138 89.5711C105.664 89.5711 115.756 79.479 115.756 67.0287C115.756 54.5785 105.664 44.4863 93.2138 44.4863C80.7636 44.4863 70.6714 54.5785 70.6714 67.0287Z" fill="#C3DF9E"/>
<path d="M71.3161 45.4241C71.3161 54.8631 78.9681 62.5134 88.4054 62.5134C97.8427 62.5134 105.495 54.8614 105.495 45.4241C105.495 35.9867 97.8444 28.3347 88.4054 28.3347C78.9664 28.3347 71.3161 35.9867 71.3161 45.4241Z" fill="#3CB54A"/>
<path d="M86.7574 59.6729L94.0342 52.396" stroke="#19892B" stroke-width="0.558135" stroke-linecap="round" stroke-linejoin="round"/>
<path d="M86.7576 43.0693V138.277" stroke="#19892B" stroke-width="0.558135" stroke-linecap="round" stroke-linejoin="round"/>
<path d="M86.7576 74.622L77.8763 65.7407" stroke="#19892B" stroke-width="0.558135" stroke-linecap="round" stroke-linejoin="round"/>
<path d="M559.6 19.1401C559.6 28.9179 551.674 36.8438 541.897 36.8438C532.119 36.8438 524.193 28.9179 524.193 19.1401C524.193 9.36242 532.119 1.43652 541.897 1.43652C551.674 1.43652 559.6 9.36242 559.6 19.1401Z" fill="#27A627"/>
<path d="M572.09 58.8819C572.09 76.3262 557.948 90.4681 540.504 90.4681C523.06 90.4681 508.918 76.3262 508.918 58.8819C508.918 41.4375 523.06 27.2957 540.504 27.2957C557.948 27.2957 572.09 41.4375 572.09 58.8819Z" fill="#3CB54A"/>
<path d="M546.93 39.1896C546.93 53.7186 535.152 65.4971 520.623 65.4971C506.094 65.4971 494.315 53.7186 494.315 39.1896C494.315 24.6605 506.094 12.8838 520.623 12.8838C535.152 12.8838 546.93 24.6623 546.93 39.1896Z" fill="#27A627"/>
<path d="M530.819 58.1073L520.624 47.9126" stroke="#19892B" stroke-width="0.875983" stroke-linecap="round" stroke-linejoin="round"/>
<path d="M530.819 34.8433V138.3" stroke="#19892B" stroke-width="0.875983" stroke-linecap="round" stroke-linejoin="round"/>
<path d="M530.819 79.0539L543.265 66.6079" stroke="#19892B" stroke-width="0.875983" stroke-linecap="round" stroke-linejoin="round"/>
<path d="M459.78 135.345C453.649 126.704 447.181 120.761 445.334 122.07C443.597 123.303 446.574 130.523 452.043 138.573H461.966C461.282 137.515 460.552 136.434 459.78 135.345Z" fill="#3CB54A"/>
<path d="M462.451 127.399C458.688 117.494 453.923 110.117 451.807 110.919C449.691 111.723 451.025 120.405 454.786 130.308C455.944 133.357 457.199 136.167 458.441 138.57H465.795C465.142 135.367 464.003 131.486 462.451 127.397" fill="#19892B"/>
<path d="M468.59 126.234C468.59 115.638 466.755 107.05 464.492 107.05C462.229 107.05 460.393 115.638 460.393 126.234C460.393 130.936 460.756 135.238 461.354 138.573H467.63C468.23 135.238 468.59 130.933 468.59 126.234Z" fill="#3CB54A"/>
<path d="M470.117 136.271C475.086 126.914 477.494 118.468 475.496 117.406C473.498 116.343 467.847 123.07 462.879 132.426C461.753 134.549 460.758 136.622 459.916 138.575H468.851C469.277 137.828 469.701 137.059 470.12 136.271" fill="#89C240"/>
<path d="M480.655 126.869C478.94 125.482 472.417 130.689 465.922 138.575H476.074C480.018 132.73 481.991 127.952 480.655 126.869Z" fill="#3CB54A"/>
<path d="M501.78 131.584C503.323 132.988 508.597 134.635 509.494 133.741C510.389 132.843 508.647 127.667 507.122 126.241C505.042 124.3 501.76 123.598 500.285 125.072C498.81 126.547 499.877 129.848 501.78 131.584Z" fill="#3CB54A"/>
<path d="M523.649 127.245C522.075 128.82 517.809 130.532 516.234 128.958C514.66 127.383 516.372 123.117 517.947 121.543C519.522 119.968 522.075 119.968 523.649 121.543C525.224 123.117 525.224 125.67 523.649 127.245Z" fill="#269035"/>
<path d="M522.209 123.197L511.583 134.017" stroke="#7EC680" stroke-width="0.795218" stroke-miterlimit="10" stroke-linecap="round"/>
<path d="M502.405 126.898L511.216 135.55" stroke="#7EC680" stroke-width="0.795218" stroke-miterlimit="10" stroke-linecap="round"/>
<path d="M501.513 107.011C501.513 112.424 505.801 123.183 511.212 123.061C515.641 122.961 521.108 112.428 521.11 107.016C521.11 101.603 518.047 92.3823 511.298 92.3528C504.295 92.3257 501.515 101.599 501.515 107.009" fill="#269035"/>
<path d="M511.662 99.3486C511.662 99.3486 511.468 114.399 511.472 125.444C511.474 132.684 511.456 138.339 511.456 138.339" stroke="#7EC680" stroke-width="0.795218" stroke-miterlimit="10" stroke-linecap="round"/>
<path d="M518.26 104.938L511.535 116.918" stroke="#7EC680" stroke-width="0.795218" stroke-miterlimit="10" stroke-linecap="round"/>
<path d="M505.987 103.425L511.395 110.183" stroke="#7EC680" stroke-width="0.795218" stroke-miterlimit="10" stroke-linecap="round"/>
<path d="M154.037 107.011C154.037 112.424 158.325 123.183 163.736 123.061C168.165 122.961 173.632 112.428 173.634 107.016C173.634 101.603 170.571 92.3823 163.822 92.3528C156.819 92.3257 154.039 101.599 154.039 107.009" fill="#269035"/>
<path d="M164.186 99.3486C164.186 99.3486 163.992 114.399 163.996 125.444C163.998 132.684 163.98 138.339 163.98 138.339" stroke="#7EC680" stroke-width="0.795218" stroke-miterlimit="10" stroke-linecap="round"/>
<path d="M170.784 104.938L164.06 116.918" stroke="#7EC680" stroke-width="0.795218" stroke-miterlimit="10" stroke-linecap="round"/>
<path d="M158.511 103.425L163.919 110.183" stroke="#7EC680" stroke-width="0.795218" stroke-miterlimit="10" stroke-linecap="round"/>
<path d="M119.229 65.2305C119.229 77.8612 129.776 102.969 143.08 102.684C153.972 102.451 167.416 77.8718 167.422 65.2411C167.422 52.6103 159.889 31.0921 143.292 31.0233C126.071 30.9599 119.234 52.5997 119.234 65.2252" fill="#269035"/>
<path d="M144.189 47.3494C144.189 47.3494 143.71 82.4712 143.721 108.245C143.726 125.143 143.682 138.339 143.682 138.339" stroke="#7EC680" stroke-width="0.795218" stroke-miterlimit="10" stroke-linecap="round"/>
<path d="M160.413 60.3923L143.877 88.3502" stroke="#7EC680" stroke-width="0.795218" stroke-miterlimit="10" stroke-linecap="round"/>
<path d="M130.232 56.8608L143.531 72.6321" stroke="#7EC680" stroke-width="0.795218" stroke-miterlimit="10" stroke-linecap="round"/>
<path d="M549.146 92.4956C549.123 92.5137 549.099 92.5182 549.076 92.525V92.4775C549.099 92.4888 549.121 92.4956 549.146 92.4956Z" fill="#E20613"/>
<g opacity="0.13">
<g opacity="0.13">
<path opacity="0.13" d="M538.224 96.8135C536.283 97.3278 534.717 97.7469 533.489 98.0799C533.636 95.6444 534.547 92.9597 534.688 92.4704C537.961 91.9946 542.325 92.0829 544.876 92.2053C545.599 92.2755 546.049 92.3367 546.07 92.3458C546.015 92.2891 545.88 93.7708 545.902 93.7527C546.403 93.832 546.863 93.8999 547.3 93.9656C546.043 94.4346 542.703 95.6263 538.226 96.8112" fill="#1A1A1B"/>
</g>
</g>
<g style="mix-blend-mode:multiply" opacity="0.15">
<g style="mix-blend-mode:multiply" opacity="0.15">
<g style="mix-blend-mode:multiply" opacity="0.15">
<path d="M478.827 66.2708L479.369 65.9627L480.47 65.7996C480.47 65.7996 480.08 66.9052 478.886 67.0434L478.827 66.2708Z" fill="#333333"/>
</g>
</g>
</g>
<g style="mix-blend-mode:multiply" opacity="0.15">
<g style="mix-blend-mode:multiply" opacity="0.15">
<g style="mix-blend-mode:multiply" opacity="0.15">
<path d="M302.509 68.5388C304.077 70.016 305.844 69.1528 305.844 69.1528L305.821 68.7405C304.319 69.4926 302.509 68.5388 302.509 68.5388Z" fill="black"/>
</g>
</g>
</g>
<path d="M310.018 79.4707C310.018 79.4707 310.014 79.4707 310.01 79.4749C310.014 79.4728 310.016 79.4728 310.018 79.4707Z" fill="#C6AD7F"/>
<g style="mix-blend-mode:multiply" opacity="0.15">
<g style="mix-blend-mode:multiply" opacity="0.15">
<g style="mix-blend-mode:multiply" opacity="0.15">
<path d="M308.207 72.6124C307.418 73.8199 306.632 75.0252 305.844 76.2328L304.691 77.9977C304.494 78.299 304.296 78.6003 304.099 78.9016C303.9 79.2075 303.587 79.7376 303.148 79.4816C303.087 79.4476 303.055 79.7852 303.064 79.7988C303.408 80.2859 304.421 79.6311 304.659 79.2686C305.112 78.5754 305.712 77.5536 306.163 76.8603L308.302 72.66C308.341 72.6011 308.243 72.5557 308.205 72.6124" fill="#1A1A1B"/>
</g>
</g>
</g>
<g style="mix-blend-mode:multiply" opacity="0.15">
<g style="mix-blend-mode:multiply" opacity="0.15">
<g style="mix-blend-mode:multiply" opacity="0.15">
<path d="M307.048 72.4993C306.351 72.9773 305.655 73.4553 304.957 73.9334C304.618 74.1667 304.284 74.4273 303.929 74.6335C303.453 74.9099 303.05 74.5813 302.64 74.3457C301.303 73.58 299.971 72.7553 298.944 71.5862C298.899 71.5341 298.811 71.5953 298.856 71.6474C299.937 72.8799 300.873 73.8631 302.282 74.6652C302.547 74.817 303.344 75.1477 303.666 75.1002C304.056 75.0435 304.787 74.5134 305.1 74.2981L307.107 72.5854C307.164 72.5468 307.103 72.4562 307.046 72.497" fill="#1A1A1B"/>
</g>
</g>
</g>
<g style="mix-blend-mode:multiply" opacity="0.15">
<g style="mix-blend-mode:multiply" opacity="0.15">
<g style="mix-blend-mode:multiply" opacity="0.15">
<path d="M307.967 70.4849C307.967 70.4849 305.74 72.2452 305.468 72.4265C305.196 72.6077 304.806 72.9385 304.444 72.8932C304.083 72.8478 303.542 72.6372 303.542 72.7119C303.542 72.7867 304.129 73.2534 304.475 73.1945C304.822 73.1333 306.116 72.2769 306.913 71.6584C307.711 71.0422 308.327 70.6956 307.967 70.4849Z" fill="#1A1A1B"/>
</g>
</g>
</g>
<path d="M306.811 117.492C306.519 116.542 305.65 115.789 304.663 115.668C303.677 115.549 302.637 116.089 302.195 116.977C301.577 118.219 302.266 119.767 302.944 120.976C304.027 122.907 304.962 124.388 306.98 125.297C305.753 124.057 306.37 122.525 306.587 120.935C306.745 119.784 307.152 118.601 306.811 117.49V117.492Z" fill="#269235"/>
<path d="M306.553 124.969C306.575 124.959 306.114 124.645 305.978 124.537C304.538 123.591 303.421 122.927 301.702 122.204C300.654 121.763 299.539 121.417 298.404 121.448C297.267 121.479 296.1 121.937 295.421 122.849C294.741 123.762 294.682 125.156 295.449 125.994C296.076 126.68 297.095 126.878 298.017 126.773C298.939 126.668 299.84 126.385 300.696 126.025C302.722 125.174 303.913 124.282 306.526 125.249L306.553 124.969Z" fill="#269235"/>
<path d="M312.526 129.508C310.996 128.164 309.606 127.831 307.928 127.737C306.035 127.631 304.045 128.607 302.866 130.089C302.196 130.929 301.884 132.244 302.613 133.032C303.338 133.815 304.628 133.626 305.598 133.18C306.919 132.573 308.047 131.624 309.28 130.858C310.348 130.196 311.385 129.639 312.576 129.639L312.529 129.51L312.526 129.508Z" fill="#269235"/>
<path d="M320.5 140.811C320.446 138.91 321.263 137.158 322.226 135.397C323.37 133.304 324.801 131.338 325.554 129.075C325.947 127.895 326.144 126.612 325.832 125.408C325.519 124.206 324.615 123.106 323.407 122.816C322.1 122.502 320.704 123.191 319.86 124.237C319.015 125.282 318.631 126.623 318.389 127.945C317.611 132.217 318.118 136.463 319.869 140.371C320.1 140.531 320.321 140.685 320.501 140.811H320.5Z" fill="#269235"/>
<path d="M318.566 135.423C317.372 135.49 312.726 138.444 311.349 139.035C310.632 139.344 309.839 139.535 309.07 139.403C308.301 139.271 307.565 138.764 307.319 138.023C307.054 137.222 307.41 136.312 308.02 135.728C308.63 135.144 309.448 134.832 310.262 134.611C312.894 133.897 315.579 133.99 318.117 134.879C318.229 135.015 318.476 135.316 318.566 135.423Z" fill="#269235"/>
<path d="M312.492 129.48C312.451 126.856 314.348 124.234 314.673 121.581C314.817 120.415 314.537 119.046 313.512 118.471C312.486 117.894 311.105 118.411 310.409 119.36C309.712 120.309 309.573 121.559 309.637 122.734C309.755 124.909 310.51 127.044 311.767 128.823C311.983 128.954 312.256 129.339 312.492 129.481V129.48Z" fill="#269235"/>
<path d="M318.709 135.805C315.181 131.428 312.987 129.352 304.884 123.991" stroke="#269235" stroke-width="0.679674"/>
<path d="M438.884 118.758C439.175 117.809 440.045 117.056 441.031 116.935C442.017 116.816 443.058 117.356 443.5 118.244C444.118 119.486 443.429 121.034 442.751 122.243C441.668 124.174 440.733 125.655 438.715 126.564C439.941 125.324 439.325 123.792 439.107 122.202C438.949 121.051 438.543 119.868 438.884 118.757V118.758Z" fill="#269235"/>
<path d="M439.141 126.236C439.12 126.226 439.58 125.912 439.717 125.804C441.156 124.858 442.273 124.194 443.993 123.471C445.04 123.03 446.156 122.684 447.291 122.715C448.428 122.746 449.595 123.204 450.274 124.116C450.953 125.028 451.013 126.422 450.245 127.261C449.619 127.947 448.6 128.145 447.678 128.04C446.755 127.934 445.854 127.652 444.999 127.292C442.972 126.441 441.782 125.548 439.168 126.516L439.141 126.236Z" fill="#269235"/>
<path d="M433.168 130.775C434.699 129.431 436.089 129.098 437.767 129.004C439.66 128.898 441.649 129.874 442.829 131.356C443.498 132.196 443.811 133.51 443.082 134.299C442.357 135.082 441.067 134.893 440.096 134.447C438.776 133.84 437.648 132.891 436.414 132.125C435.347 131.463 434.309 130.906 433.119 130.906L433.166 130.776L433.168 130.775Z" fill="#269235"/>
<path d="M425.195 142.078C425.249 140.177 424.432 138.424 423.468 136.664C422.324 134.571 420.893 132.605 420.14 130.341C419.748 129.162 419.55 127.879 419.863 126.675C420.176 125.473 421.079 124.373 422.287 124.083C423.595 123.769 424.99 124.458 425.834 125.504C426.68 126.549 427.064 127.89 427.305 129.212C428.084 133.483 427.577 137.73 425.826 141.638C425.594 141.798 425.374 141.952 425.193 142.078H425.195Z" fill="#269235"/>
<path d="M427.129 136.69C428.323 136.756 432.968 139.711 434.345 140.302C435.063 140.61 435.856 140.802 436.624 140.67C437.393 140.538 438.129 140.031 438.375 139.29C438.641 138.489 438.284 137.579 437.675 136.995C437.065 136.411 436.246 136.098 435.432 135.878C432.8 135.163 430.116 135.257 427.578 136.145C427.466 136.282 427.218 136.583 427.129 136.69Z" fill="#269235"/>
<path d="M433.202 130.746C433.244 128.123 431.347 125.501 431.021 122.848C430.878 121.681 431.158 120.313 432.182 119.737C433.208 119.16 434.589 119.678 435.286 120.627C435.982 121.576 436.121 122.825 436.057 124.001C435.939 126.176 435.185 128.311 433.927 130.09C433.711 130.221 433.438 130.606 433.202 130.748V130.746Z" fill="#269235"/>
<path d="M426.986 137.071C430.513 132.694 432.707 130.619 440.81 125.258" stroke="#269235" stroke-width="0.679674"/>
</g>
<defs>
<clipPath id="clip0_900_161">
<rect width="572.268" height="138.306" fill="white" transform="translate(0.365967 0.373047)"/>
</clipPath>
</defs>
</svg>
