<svg width="439" height="439" viewBox="0 0 439 439" fill="none" xmlns="http://www.w3.org/2000/svg">
<path d="M376.723 222.618C376.723 265.937 341.604 301.056 298.285 301.056C254.966 301.056 219.847 265.937 219.847 222.618C219.847 179.299 254.966 144.18 298.285 144.18C341.604 144.18 376.723 179.299 376.723 222.618Z" fill="#A1DAA6"/>
<path d="M387.697 155.314C387.697 188.156 361.077 214.776 328.235 214.776C295.394 214.776 268.773 188.156 268.773 155.314C268.773 122.473 295.394 95.8521 328.235 95.8521C361.077 95.8521 387.697 122.473 387.697 155.314Z" fill="#C6E8C8"/>
<path d="M320.744 197.027L295.43 171.706" stroke="#19892B" stroke-width="5.0111" stroke-linecap="round" stroke-linejoin="round"/>
<path d="M320.744 139.251V395.594" stroke="#19892B" stroke-width="5.0111" stroke-linecap="round" stroke-linejoin="round"/>
<path d="M320.744 249.041L351.651 218.135" stroke="#19892B" stroke-width="5.0111" stroke-linecap="round" stroke-linejoin="round"/>
<path d="M241.861 208.3C241.861 255.182 203.85 293.193 156.968 293.193C110.086 293.193 72.0753 255.189 72.0753 208.3C72.0753 161.411 110.079 123.407 156.968 123.407C203.857 123.407 241.861 161.411 241.861 208.3Z" fill="#A1DAA6"/>
<path d="M221.329 123.407C221.329 158.95 192.518 187.769 156.968 187.769C121.418 187.769 92.6067 158.957 92.6067 123.407C92.6067 87.8571 121.418 59.0533 156.968 59.0533C192.518 59.0533 221.329 87.8644 221.329 123.407Z" fill="#C6E8C8"/>
<path d="M191.795 55.7239C191.795 75.3279 175.9 91.2229 156.296 91.2229C136.692 91.2229 120.797 75.3279 120.797 55.7239C120.797 36.1198 136.692 20.2248 156.296 20.2248C175.9 20.2248 191.795 36.1198 191.795 55.7239Z" fill="#C6E8C8"/>
<path d="M156.968 180.599L129.573 153.197" stroke="#19892B" stroke-width="5.0111" stroke-linecap="round" stroke-linejoin="round"/>
<path d="M156.968 118.07V395.601" stroke="#19892B" stroke-width="5.0111" stroke-linecap="round" stroke-linejoin="round"/>
<path d="M156.968 236.892L190.423 203.444" stroke="#19892B" stroke-width="5.0111" stroke-linecap="round" stroke-linejoin="round"/>
<path d="M184.136 165.502C185.392 162.545 185.764 160.267 186.093 158.31C186.896 153.608 187.108 139.035 188.269 137.808C192.883 127.061 201.783 128.076 204.332 127.491C206.814 126.944 222.892 134.172 225.44 133.909C227.258 133.763 226.593 137.078 225.754 140.889C224.68 147.512 223.622 158.332 223.008 161.384C222.935 161.749 222.548 161.961 222.198 161.822L217.97 160.866C217.89 161.078 217.715 162.589 217.627 162.793C217.343 163.954 215.963 168.153 210.713 168.985C208.121 169.394 204.127 168.138 201.842 166.729C200.644 169.189 199.549 174.943 200.82 181.039L196.417 179.55C192.598 179.353 190.072 179.156 186.268 179.659C183.318 180.039 179.806 177.265 176.959 176.52C180.018 172.424 182.851 168.54 184.136 165.524" fill="#FFD0B3"/>
<g opacity="0.12">
<g opacity="0.12">
<path opacity="0.12" d="M206.135 168.518L205.66 163.436L197.731 158.573L198.812 175.863L200.257 176.053C200.17 171.964 200.966 168.481 201.835 166.707C202.974 167.408 204.536 168.072 206.135 168.51" fill="#1A1A1B"/>
</g>
</g>
<path d="M211.26 161.151C203.017 158.734 198.929 154.134 197.921 150.432C197.921 150.432 197.198 147.176 196.724 147.395C196.023 147.716 196.249 151.162 196.249 151.162C196.358 155.069 196.519 158.515 197.162 161.399C198.381 165.261 199.184 166.276 201.44 167.196C203.054 167.853 208.136 169.146 208.136 169.146C211.122 169.635 216.393 168.671 217.562 163.589C217.7 162.99 217.759 162.049 217.759 162.049C217.306 161.399 213.086 160.764 211.26 161.158" fill="#A38E78"/>
<path d="M214.232 166.342C214.838 166.473 215.59 165.327 215.919 163.786L213.728 163.326C213.407 164.845 213.626 166.21 214.232 166.342Z" fill="white"/>
<path d="M200.856 130.762C200.856 130.762 215.984 138.37 225.14 136.888C228.944 136.275 236.041 122.198 232.201 123.68C226.36 125.929 214.648 121.154 202.733 121.293C198.235 121.344 193.964 123.556 193.511 123.899C190.204 126.418 189.086 128.842 187.736 137.027C187.057 141.116 186.509 151.834 186.509 151.834L189.992 150.162C191.138 149.22 190.079 145.54 191.109 143.175C192.138 140.809 194.102 140.188 194.796 142.963C195.212 144.628 195.395 146.986 196.629 146.46C197.863 145.942 200.272 132.15 200.272 132.15L200.367 130.93L200.856 130.77V130.762Z" fill="#BCA68C"/>
<path d="M421.196 401.153C421.006 404.059 350.146 406.41 262.764 406.41C175.382 406.41 104.522 404.059 104.332 401.153H421.196Z" fill="#EBEBEB"/>
<path d="M421.166 401.094C420.4 393.924 417.246 387.696 413.434 387.346C406.622 386.718 408.104 391.778 403.439 391.157C397.992 390.427 401.687 382.009 392.903 381.717C384.12 381.425 387.96 390.558 382.25 393.34C378.213 395.304 377.249 390.916 371.758 393.822C369.531 394.998 368.195 397.809 367.611 401.094H421.174H421.166Z" fill="#3CB54A"/>
<path d="M295.854 343.071C295.854 343.071 298.76 352.621 295.219 362.558C291.677 372.495 282.887 376.839 281.718 382.031C280.543 387.222 282.631 394.728 286.523 395.056C290.414 395.385 290.743 401.328 290.743 401.328L279.09 400.948L272.029 376.89C272.029 376.89 278.119 369.041 272.709 355.994C267.298 342.946 291.378 344.531 291.378 344.531L295.846 343.063L295.854 343.071Z" fill="#E3C672"/>
<path d="M230.682 318.553C231.054 318.202 231.383 317.896 231.39 317.348C231.398 316.435 230.551 315.501 230.105 314.771C229.361 313.544 227.966 311.127 229.762 310.098C230.405 309.725 231.785 310.098 231.821 309.105C231.858 308.097 230.901 307.031 230.448 306.184C230.237 305.783 229.93 305.264 229.915 304.79C229.908 304.388 230.259 304.089 230.573 303.884C231.186 303.49 231.901 303.512 232.573 303.724C233.179 303.913 233.727 304.286 234.34 304.454C234.88 304.6 235.07 304.198 235.18 303.746C235.37 301.803 233.749 299.905 233.741 297.868C233.741 297.503 234.099 297.167 234.471 297.35C234.866 297.547 235.267 297.737 235.676 297.89C235.873 296.473 235.421 294.904 235.267 293.531C235.107 292.136 234.939 290.406 235.924 289.26C236.092 289.063 236.465 288.99 236.662 289.194C237.268 289.815 237.699 290.567 238.202 291.26C238.465 290.187 238.611 289.085 238.976 288.04C239.254 287.252 239.466 286.456 239.721 285.66C240.035 284.667 240.889 282.667 242.196 283.791C243.051 284.528 243.452 285.887 243.803 286.916C244.263 288.259 244.628 289.632 244.978 291.005C245.832 294.371 246.906 297.707 248.351 300.869C250.045 304.563 252.374 308.112 255.908 310.273C257.982 311.543 260.172 312.609 262.326 313.734C263.867 314.537 265.582 315.347 267.043 316.406C269.722 317.049 272.241 318.363 274.848 319.305C276.805 320.006 278.842 320.466 280.901 320.75C282.689 320.524 284.456 320.122 286.107 319.436C289.042 318.217 292.225 317.574 295.35 317.041C301.176 316.056 306.981 316.253 312.866 316.267C318.605 316.275 324.256 315.749 329.776 314.092C332.426 313.296 335.011 312.259 337.479 311.003C339.822 309.813 342.349 308.783 344.035 306.768C345.7 304.782 346.883 302.738 348.518 300.737C348.788 300.402 348.708 299.401 348.978 299.073C348.956 298.868 349.015 298.657 349.212 298.496C349.606 298.16 349.957 297.81 350.278 297.437C350.424 297.247 350.57 297.058 350.716 296.868C350.869 296.663 351.015 296.459 351.161 296.247C352.68 293.881 353.242 291.005 353.929 288.238C354.33 286.609 354.783 284.974 355.528 283.462C356.36 281.769 357.557 280.367 358.894 279.052C361.843 276.154 363.391 274.504 367.202 272.919C368.283 272.474 371.298 271.488 372.445 271.225C373.219 271.05 374.007 271.152 374.781 271.32C376.738 271.758 378.717 272.284 380.615 272.912C382.674 273.591 384.288 274.781 386.084 275.949C387.332 276.76 388.683 277.453 389.975 278.22C392.596 278.403 395.335 277.906 397.846 277.468C398.642 277.329 399.416 277.191 400.19 276.986C400.81 276.818 401.504 276.607 402.154 276.701C403.439 276.899 403.454 278.322 403.439 279.359C403.402 282.148 403.366 288.938 403.242 289.252C402.322 291.655 401.628 291.53 400.621 293.166C399.715 294.626 399.299 296.437 397.912 297.43C396.298 298.584 394.568 298.445 392.64 298.941C391.72 299.175 392.253 301.029 391.348 301.3C390.516 302.336 386.58 300.102 385.441 300.774C384.025 301.614 385.514 305.439 384.266 306.52C383.273 307.374 381.739 308.126 380.863 309.097C380.673 309.747 380.725 310.412 380.608 311.083C380.345 312.536 380.746 314.194 380.732 315.669C380.717 318.487 380.593 321.334 380.389 324.145C380.192 326.891 379.717 329.563 378.863 332.177C378.804 332.359 378.739 332.549 378.68 332.732C378.249 334.966 377.483 337.062 376.877 339.252C376.271 341.442 373.533 341.829 374.387 345.48C374.832 347.408 372.386 348.919 371.167 350.496C370.043 351.949 368.035 349.766 367.655 354.723C367.502 356.688 366.166 358.63 364.457 359.615C362.026 361.025 357.959 361.105 357.331 363.003C356.024 366.982 353.272 372.853 352.352 376.934C351.899 378.949 348.862 382.658 348.613 384.703C348.35 386.842 346.985 393.326 347.518 394.034C348.496 395.319 351.804 396.341 351.716 400.05C351.687 401.489 350.154 401.204 350.154 401.204C348.927 401.357 342.801 401.291 342.926 400.999C342.115 399.649 342.487 397.721 341.743 396.334C340.888 394.742 336.931 378.044 336.07 371.298C335.851 369.582 335.704 367.859 335.369 366.165C335.047 364.544 334.529 362.952 334.31 361.309C334.222 360.616 334.171 359.907 334.149 359.185C332.886 359.185 330.448 362.507 327.841 362.178C326.395 361.996 326.505 359.396 324 360.017C321.043 360.747 317.977 361.558 316.268 361.368C312.661 360.966 313.874 358.491 310.398 357.454C308.376 356.848 305.229 360.265 301.103 359.739L299.636 354.687L296.372 355.016C296.372 355.016 288.056 365.449 275.899 369.049C271.066 370.48 269.146 372.13 269.146 372.13L267.028 374.495C265.261 376.16 264.232 376.759 264.093 376.854C263.224 377.453 262.282 377.285 261.596 378.11C260.983 378.84 253.236 390.829 255.273 394.158C255.894 395.173 257.011 395.596 257.741 396.487C258.916 397.925 257.894 400.999 257.602 401.014C254.192 401.116 250.812 400.882 247.402 400.846C247.285 400.846 247.19 400.817 247.11 400.766C246.855 400.795 246.57 400.649 246.577 400.342C246.577 400.269 246.577 400.196 246.577 400.123C246.27 397.663 248.088 387.886 248.665 385.557C249.176 383.498 252.564 372.334 253.119 371.641C253.586 371.057 258.705 359.973 258.062 356.074C257.463 352.424 256.719 348.671 258.011 345.13C258.135 343.465 258.486 341.837 259.128 340.281C260.07 338.018 261.443 335.879 262.713 333.783C263.794 332.009 265.247 330.549 266.554 328.957C266.736 328.738 266.926 328.504 267.116 328.263C266.539 328.504 265.962 328.76 265.4 329.037C263.326 330.052 261.311 331.206 259.333 332.389C257.828 333.279 256.295 334.156 254.667 334.805C253.338 335.338 251.695 335.893 250.293 335.309C250.257 335.295 250.228 335.273 250.199 335.251C250.118 335.207 250.053 335.127 250.016 335.01C249.673 333.893 250.644 332.98 251.717 332.294C250.396 332.944 249.001 333.418 247.475 333.572C247.059 333.615 246.825 333.192 246.957 332.834C247.271 331.973 247.877 331.469 248.578 331.082C246.709 331.87 244.825 332.564 242.846 331.746C242.532 331.615 242.386 331.118 242.649 330.863C243.751 329.797 245.226 329.417 246.555 328.76C245.526 328.702 244.496 328.745 243.459 328.76C242.43 328.76 241.4 328.709 240.378 328.65C238.721 328.556 236.377 328.402 235.399 326.818C235.231 326.54 235.253 326.117 235.559 325.934C237.436 324.825 239.597 324.481 241.627 323.759C240.889 323.605 240.079 323.605 239.407 323.583C238.232 323.547 237.034 323.591 235.873 323.415C233.727 323.094 230.887 322.532 229.638 320.553C229.521 320.371 229.47 320.108 229.58 319.911C229.872 319.385 230.237 318.976 230.667 318.567" fill="#ECD9A1"/>
<path d="M378.95 280.133C378.76 279.637 378.344 279.191 377.819 279.06C377.227 278.914 376.643 279.308 376.526 279.899V279.914C376.497 279.987 376.49 280.06 376.512 280.126C376.512 280.155 376.512 280.184 376.512 280.213C376.468 280.469 376.519 280.732 376.658 280.973C377.008 281.593 377.899 281.951 378.534 281.55C379.023 281.243 379.147 280.644 378.95 280.126" fill="#5A5556"/>
<path d="M344.795 345.765L372.226 333.988C373.555 336.667 376.11 350.248 373.898 353.84C371.488 357.754 374.139 362.572 376.307 366.333C381.929 376.094 387.58 386.105 390.735 391.325C393.144 395.319 398.934 392.026 398.956 399.043C398.971 404.278 389.026 401.058 389.026 401.058L384.755 396.816L366.669 378.672C360.346 375.058 355.754 365.091 355.528 365.121L344.787 345.757L344.795 345.765Z" fill="#ECD9A1"/>
<path d="M403.081 276.972C402.629 276.417 402.358 276.431 400.46 276.884C398.562 277.337 397.795 277.337 397.656 277.651C397.218 278.673 399.372 279.914 400.643 280.316C401.906 280.724 403.176 281.082 403.402 280.724C403.629 280.359 403.716 277.738 403.089 276.972" fill="#5A5556"/>
<path d="M346.89 302.95L343.787 307.44C343.787 307.44 345.62 311.814 358.207 316.581C370.795 321.349 380.447 318.772 380.447 318.772L380.622 311.872C380.622 311.872 373.788 313.785 362.164 309.806C350.541 305.826 346.89 302.95 346.89 302.95Z" fill="#8EC641"/>
<path d="M373.562 287.186C373.467 289.231 370.065 292.677 369.174 297.364C368.283 302.052 371.057 304.863 370.736 306.038C370.415 307.221 368.152 310.266 365.793 310.594C358.09 311.675 355.221 304.06 352.753 302.65C350.293 301.241 357.236 294.736 355.915 290.07C354.724 285.872 356.805 280.885 364.004 278.76C366.64 277.979 374.029 277.169 373.555 287.179" fill="#E3C672"/>
<path d="M380.6 321.546C380.6 324.029 379.082 326.037 377.213 326.037C375.343 326.037 373.825 324.029 373.825 321.546C373.825 319.064 375.343 317.056 377.213 317.056C379.082 317.056 380.6 319.064 380.6 321.546Z" fill="#FCD75E"/>
<path d="M198.768 294.414C198.593 294.057 198.403 293.692 198.155 293.334C193.036 285.675 187.261 277.096 181.522 268.619L162.955 282.331C169.212 288.924 174.849 294.874 178.711 298.963C176.711 301.672 174.228 305.264 172.009 309.506C162.867 326.964 152.259 351.328 150.229 356.505C148.199 361.682 158.698 366.829 162.539 359.228C170.249 343.961 193.642 310.003 198.6 301.811C200.199 299.175 200.002 296.546 198.768 294.414Z" fill="#FFD0B3"/>
<path d="M152.463 349.094C152.463 349.094 153.383 350.248 157.442 351.416C161.509 352.584 166.679 352.957 166.679 352.957L163.101 361.397L148.761 358.352L152.463 349.087V349.094Z" fill="#E9EBEC"/>
<path d="M178.003 375.284C179.617 375.094 180.442 373.846 181.252 372.948C182.61 367.954 167.971 364.982 166.606 357.812C166.357 356.512 168.307 354.103 164.693 353.533C160.494 352.876 161.736 356.469 157.851 356.863C153.967 357.257 150.718 354.395 150.718 354.395C149.55 354.395 147.359 359.886 145.906 364.398L146.337 365.033L178.003 375.284Z" fill="#335E8E"/>
<path d="M145.614 366.946C145.753 367.048 145.914 367.15 146.082 367.253L173.885 376.204C177.477 376.584 180.259 375.708 181.223 373.159C181.384 372.736 181.391 372.305 181.281 371.874C179.66 373.656 176.601 374.517 171.403 372.926C168.643 372.079 163.627 370.509 158.457 368.669C153.755 366.997 147.724 365.318 145.841 363.419C145.278 365.216 144.972 366.479 145.607 366.946" fill="#7EC6EB"/>
<path d="M166.233 358.309C164.342 358.696 162.539 359.513 161.078 360.711C160.954 360.813 160.991 360.988 161.093 361.054C161.217 361.141 161.385 361.09 161.502 360.995C162.838 359.893 164.532 359.148 166.255 358.79C166.627 358.717 166.606 358.228 166.226 358.301" fill="#343A40"/>
<path d="M167.642 360.725C166.189 360.857 164.7 361.397 163.554 362.295C163.429 362.39 163.371 362.536 163.459 362.645C163.532 362.74 163.736 362.77 163.86 362.675C164.941 361.828 166.306 361.339 167.672 361.214C167.825 361.2 167.956 361.046 167.949 360.93C167.949 360.791 167.803 360.718 167.642 360.733" fill="#343A40"/>
<path d="M169.198 362.543C168.153 362.894 167.16 363.405 166.321 364.069C166.197 364.164 166.138 364.31 166.226 364.42C166.299 364.515 166.503 364.544 166.627 364.449C167.438 363.814 168.365 363.325 169.365 362.989C169.519 362.938 169.599 362.777 169.555 362.66C169.504 362.536 169.344 362.492 169.19 362.543" fill="#343A40"/>
<path d="M116.876 348.944L115.053 349.128L119.95 397.677L121.773 397.493L116.876 348.944Z" fill="#B7B5B7"/>
<path d="M127.355 294.826L115.294 342.107L117.07 342.56L129.13 295.279L127.355 294.826Z" fill="#B7B5B7"/>
<path d="M110.413 293.463L108.59 293.647L113.487 342.195L115.31 342.011L110.413 293.463Z" fill="#B7B5B7"/>
<path d="M114.139 348.214L100.599 395.093L102.36 395.602L115.9 348.723L114.139 348.214Z" fill="#B7B5B7"/>
<path d="M111.833 344.955L63.4384 351.188L63.6725 353.006L112.067 346.772L111.833 344.955Z" fill="#B7B5B7"/>
<path d="M167.506 337.784L119.111 344.018L119.346 345.835L167.741 339.602L167.506 337.784Z" fill="#B7B5B7"/>
<path d="M147.905 304.117L116.313 341.304L117.71 342.49L149.302 305.303L147.905 304.117Z" fill="#B7B5B7"/>
<path d="M112.924 348.54L81.3442 385.737L82.7413 386.923L114.321 349.726L112.924 348.54Z" fill="#B7B5B7"/>
<path d="M161.302 319.958L117.702 341.867L118.525 343.505L162.125 321.595L161.302 319.958Z" fill="#B7B5B7"/>
<path d="M111.753 347.226L68.1531 369.136L68.9759 370.773L112.575 348.864L111.753 347.226Z" fill="#B7B5B7"/>
<path d="M118.105 344.966L117.654 346.742L164.945 358.762L165.396 356.985L118.105 344.966Z" fill="#B7B5B7"/>
<path d="M63.443 334.389L63.0986 336.189L111.024 345.357L111.369 343.557L63.443 334.389Z" fill="#B7B5B7"/>
<path d="M119.279 345.857L118.024 347.193L153.588 380.602L154.843 379.266L119.279 345.857Z" fill="#B7B5B7"/>
<path d="M73.3664 314.138L72.2926 315.623L111.833 344.214L112.907 342.729L73.3664 314.138Z" fill="#B7B5B7"/>
<path d="M118.613 347.247L116.945 348.005L137.141 392.424L138.809 391.666L118.613 347.247Z" fill="#B7B5B7"/>
<path d="M90.4575 299.66L88.8602 300.559L112.784 343.086L114.381 342.188L90.4575 299.66Z" fill="#B7B5B7"/>
<path d="M279.176 348.937L277.353 349.121L282.25 397.67L284.073 397.486L279.176 348.937Z" fill="#B7B5B7"/>
<path d="M289.651 294.824L277.59 342.104L279.366 342.557L291.427 295.277L289.651 294.824Z" fill="#B7B5B7"/>
<path d="M272.713 293.456L270.89 293.64L275.787 342.188L277.61 342.004L272.713 293.456Z" fill="#B7B5B7"/>
<path d="M276.449 348.214L262.909 395.093L264.67 395.601L278.209 348.722L276.449 348.214Z" fill="#B7B5B7"/>
<path d="M274.141 344.954L225.746 351.188L225.98 353.006L274.375 346.772L274.141 344.954Z" fill="#B7B5B7"/>
<path d="M329.814 337.784L281.419 344.017L281.653 345.835L330.048 339.601L329.814 337.784Z" fill="#B7B5B7"/>
<path d="M310.206 304.113L278.614 341.299L280.01 342.486L311.603 305.299L310.206 304.113Z" fill="#B7B5B7"/>
<path d="M275.225 348.521L243.646 385.718L245.043 386.904L276.622 349.707L275.225 348.521Z" fill="#B7B5B7"/>
<path d="M323.605 319.951L280.005 341.86L280.828 343.497L324.428 321.588L323.605 319.951Z" fill="#B7B5B7"/>
<path d="M274.062 347.216L230.463 369.125L231.286 370.763L274.885 348.853L274.062 347.216Z" fill="#B7B5B7"/>
<path d="M280.403 344.966L279.951 346.742L327.243 358.761L327.694 356.985L280.403 344.966Z" fill="#B7B5B7"/>
<path d="M225.75 334.388L225.405 336.188L273.331 345.356L273.675 343.556L225.75 334.388Z" fill="#B7B5B7"/>
<path d="M281.577 345.86L280.323 347.196L315.887 380.605L317.141 379.269L281.577 345.86Z" fill="#B7B5B7"/>
<path d="M235.685 314.143L234.611 315.627L274.142 344.232L275.216 342.748L235.685 314.143Z" fill="#B7B5B7"/>
<path d="M280.919 347.257L279.25 348.016L299.446 392.435L301.115 391.676L280.919 347.257Z" fill="#B7B5B7"/>
<path d="M252.765 299.662L251.168 300.561L275.091 343.088L276.689 342.19L252.765 299.662Z" fill="#B7B5B7"/>
<path d="M132.735 236.186C132.735 236.186 130.975 251.789 141.044 262.362C151.112 272.934 162.94 286.777 164.7 289.041C166.46 291.304 169.986 296.087 169.986 296.087C169.986 296.087 179.303 291.808 184.837 289.041C190.371 286.274 197.498 283.419 197.498 283.419C197.498 283.419 186.348 265.129 184.333 263.114C182.318 261.099 166.211 234.668 166.211 234.668L132.735 236.179V236.186Z" fill="#1A1A1B"/>
<path d="M158.143 374.81C157.581 374.81 157.034 374.525 156.72 374.014C156.238 373.225 156.486 372.203 157.274 371.721L182.201 356.476C182.99 355.994 184.012 356.242 184.494 357.031C184.976 357.819 184.727 358.842 183.939 359.323L159.012 374.569C158.742 374.736 158.443 374.817 158.143 374.817" fill="#343A40"/>
<path d="M165.116 377.336L150.061 372.093C149.192 371.787 148.732 370.838 149.031 369.969C149.338 369.1 150.287 368.64 151.156 368.939L166.211 374.182C167.08 374.488 167.54 375.437 167.241 376.306C166.941 377.175 165.985 377.635 165.116 377.336Z" fill="#343A40"/>
<path d="M276.162 289.464C245.299 289.464 220.285 314.479 220.285 345.341C220.285 376.204 245.307 401.218 276.162 401.218C307.017 401.218 332.039 376.204 332.039 345.341C332.039 314.479 307.017 289.464 276.162 289.464ZM276.162 395.443C248.49 395.443 226.06 373.013 226.06 345.341C226.06 317.669 248.49 295.24 276.162 295.24C303.834 295.24 326.264 317.669 326.264 345.341C326.264 373.013 303.834 395.443 276.162 395.443Z" fill="#3B3C3D"/>
<path d="M276.162 292.918C247.205 292.918 223.739 316.391 223.739 345.341C223.739 374.291 247.212 397.765 276.162 397.765C305.112 397.765 328.586 374.291 328.586 345.341C328.586 316.391 305.112 292.918 276.162 292.918ZM276.162 393.515C249.556 393.515 227.988 371.947 227.988 345.341C227.988 318.735 249.556 297.167 276.162 297.167C302.768 297.167 324.336 318.735 324.336 345.341C324.336 371.947 302.768 393.515 276.162 393.515Z" fill="#DCF0E6"/>
<path d="M115.255 289.464C84.3925 289.464 59.3782 314.479 59.3782 345.341C59.3782 376.204 84.3925 401.218 115.255 401.218C146.118 401.218 171.132 376.204 171.132 345.341C171.132 314.479 146.118 289.464 115.255 289.464ZM115.255 395.443C87.5832 395.443 65.1535 373.013 65.1535 345.341C65.1535 317.669 87.5832 295.24 115.255 295.24C142.927 295.24 165.357 317.669 165.357 345.341C165.357 373.013 142.927 395.443 115.255 395.443Z" fill="#3B3C3D"/>
<path d="M115.255 292.918C86.2982 292.918 62.8317 316.391 62.8317 345.341C62.8317 374.291 86.3055 397.765 115.255 397.765C144.205 397.765 167.679 374.291 167.679 345.341C167.679 316.391 144.205 292.918 115.255 292.918ZM115.255 393.515C88.6492 393.515 67.081 371.947 67.081 345.341C67.081 318.735 88.6492 297.167 115.255 297.167C141.861 297.167 163.429 318.735 163.429 345.341C163.429 371.947 141.861 393.515 115.255 393.515Z" fill="#DCF0E6"/>
<path d="M276.162 347.846C275.169 347.846 274.234 347.254 273.84 346.276L239.144 260.193C238.648 258.959 239.203 257.55 240.415 256.988L258.544 248.569C259.8 247.985 261.289 248.533 261.866 249.789C262.45 251.045 261.903 252.534 260.647 253.111L244.679 260.529L278.484 344.407C279.002 345.692 278.382 347.145 277.097 347.663C276.79 347.787 276.476 347.846 276.162 347.846Z" fill="#3CB54A"/>
<path d="M153.518 257.211L148.738 258.708L180.716 360.812L185.495 359.315L153.518 257.211Z" fill="#3CB54A"/>
<path d="M183.121 360.36C182.968 360.36 182.822 360.345 182.669 360.316L114.803 347.802C113.999 347.656 113.32 347.123 112.985 346.385C112.649 345.641 112.685 344.786 113.101 344.078L154.726 272.861C155.172 272.094 155.997 271.62 156.888 271.62H247.461C248.483 271.62 249.403 272.24 249.782 273.189L252.44 279.775C252.791 280.644 252.623 281.644 252.009 282.353L185.02 359.499C184.538 360.053 183.844 360.36 183.128 360.36H183.121ZM119.22 343.523L182.179 355.132L247.227 280.221L245.774 276.621H158.326L119.227 343.523H119.22Z" fill="#3CB54A"/>
<path d="M126.171 254.301V254.228C126.171 253.155 127.04 252.286 128.113 252.286H162.334C164.547 252.286 166.693 252.987 168.482 254.294C169.293 254.885 168.876 256.17 167.869 256.17H161.531C161.261 256.17 160.991 256.228 160.735 256.338L150.886 260.741C150.638 260.85 150.368 260.909 150.09 260.909H138.919C137.663 260.909 136.422 260.617 135.298 260.054L127.237 256.039C126.58 255.71 126.164 255.038 126.164 254.301" fill="#8EC641"/>
<path d="M183.121 373.97C181.435 373.97 179.763 373.707 178.156 373.189L177.755 373.064L113.196 352.073L113.094 352.037C110.188 351.102 108.224 348.415 108.224 345.341C108.224 341.464 111.378 338.31 115.255 338.31C115.489 338.31 115.723 338.317 115.949 338.347L183.275 341.749H183.523C187.743 341.859 191.686 343.582 194.643 346.604C197.6 349.627 199.228 353.628 199.228 357.863C199.228 366.749 192 373.977 183.114 373.977L183.121 373.97ZM115.248 339.982C112.291 339.982 109.882 342.392 109.882 345.349C109.882 347.692 111.378 349.744 113.605 350.459L113.707 350.496L178.251 371.48L178.653 371.611C180.098 372.079 181.595 372.312 183.107 372.312C191.072 372.312 197.549 365.829 197.549 357.87C197.549 349.912 191.364 343.633 183.464 343.436H183.187L115.803 340.019H115.781C115.598 339.997 115.416 339.989 115.233 339.989" fill="#343A40"/>
<path d="M282.361 345.341C282.361 348.766 279.586 351.54 276.162 351.54C272.738 351.54 269.963 348.766 269.963 345.341C269.963 341.917 272.738 339.142 276.162 339.142C279.586 339.142 282.361 341.917 282.361 345.341Z" fill="black"/>
<path d="M121.454 345.341C121.454 348.766 118.68 351.54 115.255 351.54C111.831 351.54 109.056 348.766 109.056 345.341C109.056 341.917 111.831 339.142 115.255 339.142C118.68 339.142 121.454 341.917 121.454 345.341Z" fill="#343A40"/>
<path d="M117.088 345.341C117.088 346.356 116.263 347.181 115.248 347.181C114.233 347.181 113.408 346.356 113.408 345.341C113.408 344.326 114.233 343.501 115.248 343.501C116.263 343.501 117.088 344.326 117.088 345.341Z" fill="#DCF0E6"/>
<path d="M277.995 345.341C277.995 346.356 277.17 347.181 276.155 347.181C275.14 347.181 274.315 346.356 274.315 345.341C274.315 344.326 275.14 343.501 276.155 343.501C277.17 343.501 277.995 344.326 277.995 345.341Z" fill="#DCF0E6"/>
<path d="M183.121 342.581C174.681 342.581 167.839 349.423 167.839 357.863C167.839 366.303 174.681 373.145 183.121 373.145C191.562 373.145 198.403 366.303 198.403 357.863C198.403 349.423 191.562 342.581 183.121 342.581ZM183.121 367.406C177.85 367.406 173.578 363.135 173.578 357.863C173.578 352.592 177.85 348.32 183.121 348.32C188.393 348.32 192.664 352.592 192.664 357.863C192.664 363.135 188.393 367.406 183.121 367.406Z" fill="#343A40"/>
<path d="M183.121 361.185C181.281 361.185 179.792 359.696 179.792 357.856C179.792 356.016 181.281 354.526 183.121 354.526C184.961 354.526 186.451 356.016 186.451 357.856C186.451 359.696 184.961 361.185 183.121 361.185Z" fill="#343A40"/>
<path d="M183.07 359.564C182.508 359.564 181.96 359.28 181.646 358.768C181.164 357.98 181.413 356.958 182.201 356.476L207.237 341.165C208.026 340.683 209.048 340.931 209.53 341.72C210.012 342.508 209.764 343.531 208.975 344.012L183.939 359.323C183.669 359.491 183.369 359.572 183.07 359.572" fill="#343A40"/>
<path d="M216.079 344.246H200.141C199.221 344.246 198.469 343.501 198.469 342.581C198.469 341.661 199.213 340.909 200.141 340.909H216.079C216.999 340.909 217.744 341.654 217.744 342.581C217.744 343.509 216.999 344.246 216.079 344.246Z" fill="#343A40"/>
<path d="M243.233 244.911C243.956 243.239 245.935 242.524 247.556 243.349C250.921 245.05 255.317 247.299 257.923 246.656C261.238 245.839 266.094 247.394 267.065 252.118C268.036 256.842 263.976 261.77 260.756 256.535C257.544 251.3 255.346 253.673 251.717 252.198C250.111 251.548 246.234 249.628 244.891 249.059C243.284 248.372 242.539 246.518 243.233 244.911Z" fill="#FFD0B3"/>
<path d="M219.263 340.909L197.278 340.953C195.482 340.953 194.132 339.325 194.475 337.565C195.088 334.426 195.453 330.775 195.453 330.775C202.842 330.534 208.515 328.745 208.515 328.745C210.516 328.95 220.526 332.966 224.038 334.462H224.053C224.951 334.857 225.52 335.755 225.513 336.726C225.498 338.843 224.111 340.902 219.256 340.909" fill="#1E3346"/>
<path d="M264.268 253.381C264.268 255.681 262.399 257.55 260.099 257.55C257.799 257.55 255.93 255.688 255.93 253.381C255.93 251.074 257.799 249.212 260.099 249.212C262.399 249.212 264.268 251.074 264.268 253.381Z" fill="#C6E8C8"/>
<path d="M248.826 243.882C246.774 242.852 222.563 228.856 219.197 226.833C218.328 226.315 217.489 225.87 216.685 225.505C211.618 214.786 204.507 194.62 202.382 186.727C199.703 176.783 188.02 175.352 183.946 182.412C182.311 185.238 181.895 189.429 183.764 194.978C187.254 205.324 199.184 228.71 202.681 234.098C202.784 234.259 202.893 234.412 202.995 234.558C203.543 235.924 204.543 237.128 206.004 237.909C209.625 239.844 212.881 241.115 216.664 242.451C230.507 247.365 249.366 251.169 249.366 251.169L251.659 245.247C251.659 245.247 248.906 243.918 248.826 243.882Z" fill="#FFD0B3"/>
<path d="M177.419 181.025C177.419 181.025 185.494 207.726 186.728 210.873C187.962 214.019 191.795 223.745 191.795 223.745C191.795 223.745 199.462 218.546 203.842 216.896C208.223 215.253 210.691 214.158 210.691 214.158L212.881 213.749C212.881 213.749 206.719 195.949 206.31 194.445C205.901 192.941 202.2 183.215 201.791 181.85C201.382 180.477 198.914 175.687 196.176 175.279C193.438 174.87 177.419 181.032 177.419 181.032" fill="#335E8E"/>
<path d="M182.785 165.962C182.785 165.962 194.329 171.935 196.855 173.263C199.374 174.592 201.499 176.053 201.499 176.053L199.505 183.748C199.505 183.748 189.817 177.907 188.488 176.98C187.159 176.053 177.339 170.08 177.339 170.08L182.778 165.969L182.785 165.962Z" fill="#335E8E"/>
<path d="M105.939 178.126C105.953 177.966 105.975 177.805 105.961 177.644C105.807 175.739 104.646 172.3 100.076 172.3C98.5644 172.3 96.3886 172.679 95.1693 173.256C93.8623 169.036 89.1092 165.232 83.3192 165.232C78.3105 165.232 74.0246 168.81 72.1044 172.176C70.2425 170.993 66.6868 170.073 64.2043 170.073C57.9763 170.073 54.2672 172.657 54.2672 178.075C54.2672 178.09 54.2672 178.112 54.2672 178.126H105.931H105.939Z" fill="#C1E3F3"/>
<path d="M102.712 77.1049C102.712 93.4088 89.4961 106.624 73.1923 106.624C56.8884 106.624 43.673 93.4088 43.673 77.1049C43.673 60.801 56.8884 47.5856 73.1923 47.5856C89.4961 47.5856 102.712 60.801 102.712 77.1049Z" fill="#FCD75E"/>
<path d="M74.2072 31.0846H72.1847V44.1978H74.2072V31.0846Z" fill="#FCD75E"/>
<path d="M74.2072 111.458H72.1847V124.571H74.2072V111.458Z" fill="#FCD75E"/>
<path d="M119.935 76.8201H106.822V78.8426H119.935V76.8201Z" fill="#FCD75E"/>
<path d="M39.5624 76.8201H26.4492V78.8426H39.5624V76.8201Z" fill="#FCD75E"/>
<path d="M105.529 44.0641L96.2566 53.3365L97.6867 54.7667L106.959 45.4942L105.529 44.0641Z" fill="#FCD75E"/>
<path d="M48.6954 100.899L39.423 110.172L40.8531 111.602L50.1255 102.33L48.6954 100.899Z" fill="#FCD75E"/>
<path d="M40.8573 44.065L39.4272 45.4951L48.6997 54.7675L50.1298 53.3374L40.8573 44.065Z" fill="#FCD75E"/>
<path d="M158.253 108.391C158.275 108.157 158.289 107.924 158.289 107.69C158.289 102.236 152.886 97.8187 146.228 97.8187C144.023 97.8187 141.964 98.3006 140.189 99.1476C138.291 92.9926 131.216 88.4219 122.768 88.4219C115.46 88.4219 109.181 91.8463 106.391 96.7528C103.675 95.0296 100.339 94.0148 96.7245 94.0148C87.6489 94.0148 80.2892 100.418 80.2892 108.318C80.2892 108.347 80.2892 108.369 80.2892 108.398H158.26L158.253 108.391Z" fill="#C1E3F3"/>
<path d="M217.408 255.345H217.394C212.363 253.52 206.982 251.592 201.491 249.621L191.321 269.079C192.737 269.334 194.132 269.583 195.46 269.824C198.045 270.284 200.44 270.722 202.594 271.109C201.856 273.774 198.001 280.053 197.497 283.419C194.628 302.731 196.921 323.605 195.512 331.607C195.512 331.666 195.504 331.717 195.504 331.768C195.292 337.324 206.756 337.229 207.88 328.789C210.143 311.835 221.212 273.576 223.205 264.216C224.191 259.602 221.234 256.374 217.408 255.338" fill="#FFD0B3"/>
<path d="M139.072 223.117C139.072 223.117 117.906 246.299 131.26 255.119C144.614 263.939 175.104 269.225 180.894 270.488C186.692 271.751 196.264 274.27 196.264 274.27C196.264 274.27 202.813 264.442 205.836 261.42C208.858 258.397 214.4 252.855 214.4 252.855C214.4 252.855 195.249 244.539 192.73 243.787C190.211 243.028 175.594 235.726 175.594 235.726L139.058 223.132L139.072 223.117Z" fill="#3B3C3D"/>
<path d="M199.637 189.845C197.95 197.584 194.73 213.012 185.801 230.856C184.311 233.835 182.544 236.099 181.091 238.8C180.997 238.983 174.717 245.087 156.661 241.356C153.543 240.713 142.343 238.654 137.568 237.617C137.568 237.617 128.938 236.325 130.099 234.711L176.835 172.3C177.952 170.956 178.959 169.328 180.259 168.342C181.522 167.386 181.42 167.211 183.844 167.678C187.626 168.408 198.125 174.329 200.696 177.63C201.623 178.827 200.958 183.734 199.637 189.838" fill="#335E8E"/>
<g opacity="0.12">
<g opacity="0.12">
<path opacity="0.12" d="M182.785 165.962C182.785 165.962 194.329 171.935 196.855 173.263C199.374 174.592 201.499 176.053 201.499 176.053L199.505 183.748C199.505 183.748 189.817 177.907 188.488 176.98C187.159 176.053 177.339 170.08 177.339 170.08L182.778 165.969L182.785 165.962Z" fill="#1A1A1B"/>
</g>
</g>
<path d="M195.168 321.787C195.168 321.787 196.395 322.605 200.622 322.466C204.85 322.328 209.888 321.101 209.888 321.101L209.07 330.235L194.489 331.732L195.168 321.78V321.787Z" fill="#E9EBEC"/>
<path d="M227.506 338.887C228.988 338.208 229.39 336.77 229.886 335.667C229.645 330.498 214.802 332.155 211.304 325.752C210.669 324.591 211.786 321.7 208.172 322.269C203.974 322.934 206.259 325.964 202.681 327.533C199.104 329.103 195.139 327.373 195.139 327.373C194.029 327.738 193.628 333.623 193.62 338.376L194.226 338.85L227.513 338.902L227.506 338.887Z" fill="#335E8E"/>
<path d="M194.124 340.88C194.285 340.931 194.467 340.982 194.665 341.026H223.877C227.418 340.289 229.791 338.595 229.93 335.879C229.952 335.426 229.828 335.017 229.587 334.638C228.587 336.828 225.936 338.588 220.511 338.668C217.62 338.712 212.37 338.755 206.887 338.58C201.9 338.427 195.643 338.675 193.27 337.449C193.285 339.332 193.38 340.625 194.132 340.873" fill="#7EC6EB"/>
<path d="M211.093 326.336C209.413 327.285 207.946 328.614 206.924 330.206C206.836 330.337 206.924 330.49 207.04 330.527C207.186 330.571 207.325 330.476 207.413 330.344C208.347 328.891 209.735 327.657 211.268 326.789C211.596 326.599 211.428 326.146 211.093 326.336Z" fill="#343A40"/>
<path d="M213.181 328.212C211.837 328.782 210.581 329.753 209.764 330.958C209.676 331.089 209.661 331.242 209.778 331.315C209.881 331.381 210.078 331.352 210.173 331.22C210.939 330.089 212.086 329.198 213.349 328.665C213.495 328.607 213.568 328.424 213.524 328.307C213.473 328.176 213.319 328.154 213.173 328.212" fill="#343A40"/>
<path d="M215.218 329.461C214.334 330.111 213.546 330.907 212.947 331.797C212.86 331.929 212.845 332.082 212.969 332.155C213.071 332.221 213.268 332.192 213.363 332.06C213.94 331.206 214.678 330.454 215.525 329.833C215.656 329.738 215.685 329.556 215.605 329.461C215.517 329.359 215.349 329.366 215.225 329.461" fill="#343A40"/>
</svg>
