<svg width="536" height="386" viewBox="0 0 536 386" fill="none" xmlns="http://www.w3.org/2000/svg">
<g clip-path="url(#clip0_697_951)">
<path d="M534.774 -86.5942H1.17163V447.008H534.774V-86.5942Z" fill="white"/>
<path d="M109.352 378.727C109.352 378.727 109.342 378.747 109.342 378.757C109.342 382.335 190.491 385.241 290.593 385.241C390.695 385.241 471.855 382.335 471.855 378.757C471.855 378.747 471.845 378.737 471.845 378.727H109.352Z" fill="#E8E8E8"/>
<path fill-rule="evenodd" clip-rule="evenodd" d="M245.012 330.58L236.323 362.902L222.703 359.524C222.703 359.524 224.427 356.217 225.83 348.189C227.233 340.161 228.335 327.403 228.335 327.403L245.012 330.59V330.58Z" fill="#6EBAE8"/>
<path fill-rule="evenodd" clip-rule="evenodd" d="M221.13 358.602C221.13 358.602 203.11 359.474 193.729 362C190.863 362.772 189.8 365.237 189.259 366.59C188.718 367.943 188.978 370.088 188.978 370.088L237.526 375.901C238.448 376.011 239.31 375.43 239.541 374.538C240.112 372.353 240.863 368.404 241.745 364.626C242.948 359.474 243.108 359.344 242.758 357.73C241.244 357.971 228.035 355.656 225.489 355.125C223.816 357.139 221.14 358.612 221.14 358.612" fill="#3B3C3D"/>
<path fill-rule="evenodd" clip-rule="evenodd" d="M205.595 370.308C201.836 369.857 193.257 368.765 188.948 368.214C188.878 369.196 188.988 370.078 188.988 370.078L237.536 375.891C238.458 376.001 239.32 375.42 239.55 374.528C239.56 374.478 239.58 374.417 239.59 374.367C231.653 373.425 209.784 370.819 205.605 370.318" fill="#5A5C5D"/>
<path d="M283.488 176.89L248.55 179.125C248.55 179.125 237.706 225.267 233.146 253.139C228.586 281.02 219.727 354.904 220.488 355.906C221.25 356.909 244.091 359.625 245.474 359.113C246.857 358.602 261.84 281.221 266.18 262.96C269.968 247.005 281.513 224.515 285.593 219.193L283.488 176.88V176.89Z" fill="#335E8E"/>
<path fill-rule="evenodd" clip-rule="evenodd" d="M301.817 363.373C301.817 363.373 284.339 366.44 275.73 370.088C273.104 371.2 272.643 373.766 272.422 375.169C272.212 376.572 272.974 378.657 272.974 378.657L321.992 378.456C322.924 378.456 323.626 377.765 323.646 376.853C323.686 374.618 323.495 370.629 323.465 366.78C323.425 361.539 323.546 361.388 322.824 359.835C321.401 360.256 307.891 359.584 305.255 359.374C304.082 361.569 301.807 363.363 301.807 363.363" fill="#3B3C3D"/>
<path fill-rule="evenodd" clip-rule="evenodd" d="M289.33 376.863C285.532 376.873 276.863 376.843 272.493 376.833C272.663 377.815 272.974 378.667 272.974 378.667L321.993 378.466C322.915 378.466 323.626 377.775 323.646 376.863C323.646 376.813 323.646 376.753 323.646 376.692C315.639 376.732 293.56 376.843 289.33 376.853" fill="#5A5C5D"/>
<path fill-rule="evenodd" clip-rule="evenodd" d="M266.54 157.477L318.064 159.541L324.949 355.736C324.949 355.736 325.541 360.266 324.538 360.346C319.156 360.797 306.749 360.988 302.57 360.847C301.517 360.807 298.461 339.38 297.318 331.773C293.279 304.893 281.874 224.154 281.874 224.154L277.584 223.744L266.55 157.487L266.54 157.477Z" fill="#335E8E"/>
<g opacity="0.12">
<g opacity="0.12">
<path opacity="0.12" fill-rule="evenodd" clip-rule="evenodd" d="M319.638 204.27L318.866 182.161C302.119 182.582 266.771 183.464 247.458 183.895C247.017 185.83 246.456 188.285 245.804 191.131C253.582 193.296 263.754 195.962 269.948 196.884C278.457 198.157 306.9 202.376 319.638 204.27Z" fill="#1A1A1B"/>
</g>
</g>
<path d="M163.682 140.549H37.9834V189.528H163.682V140.549Z" fill="#63ACDF"/>
<path d="M163.682 49.5376H37.9833V141.06H163.682V49.5376Z" fill="#E9F5F9"/>
<path d="M136.041 85.2765C136.983 84.4647 137.805 84.3444 138.426 84.605C139.358 84.9859 139.919 85.9079 139.699 87.2108C140.631 86.419 141.413 86.4391 141.934 86.6896C143.126 87.2408 143.267 88.5638 142.976 89.5961C142.675 88.7642 142.485 87.9123 141.733 87.6217C140.912 87.301 140.28 87.7319 139.248 88.0526C139.138 87.1506 139.067 85.7776 138.186 85.3366C137.654 85.0761 136.973 85.0761 136.041 85.2865" fill="#6EBAE8"/>
<path d="M141.412 84.3746C141.041 83.192 140.41 82.6508 139.738 82.5406C138.746 82.3702 137.784 82.8512 137.283 84.074C136.912 82.9114 136.241 82.5205 135.659 82.4504C134.356 82.29 133.535 83.3423 133.244 84.3646C133.935 83.8134 134.557 83.202 135.349 83.3524C136.22 83.5127 136.521 84.2143 137.233 85.0361C137.804 84.3245 138.586 83.202 139.568 83.2922C140.149 83.3524 140.73 83.7132 141.412 84.3847" fill="#6EBAE8"/>
<path d="M125.147 87.8523C125.147 85.9681 124.456 84.8957 123.534 84.4247C122.16 83.7332 120.547 84.0138 119.264 85.5672C119.244 83.7131 118.442 82.8312 117.63 82.4704C115.806 81.6485 114.143 82.8211 113.251 84.1741C114.504 83.6831 115.676 83.0617 116.769 83.6329C117.961 84.2643 118.101 85.4069 118.763 86.9202C119.905 86.1385 121.559 84.8456 122.942 85.4269C123.774 85.7677 124.446 86.5594 125.147 87.8423" fill="#6EBAE8"/>
<path d="M56.3339 135.438L56.0232 135.257L67.5487 114.702L87.1321 69.7222L87.4528 69.8625L67.8694 114.862L56.3339 135.438Z" fill="#FAFBFB"/>
<path d="M67.538 114.756L61.323 134.895L61.6582 134.999L67.8732 114.859L67.538 114.756Z" fill="#FAFBFB"/>
<path d="M88.1646 127.58C78.9742 127.631 73.6424 128.432 65.9353 127.029L87.2926 69.7924C87.2926 88.7043 88.1746 104.078 88.1746 127.58" fill="#69A242"/>
<path d="M87.2929 135.137C87.0925 135.137 86.9421 134.977 86.9421 134.786V70.8146C86.9421 70.6142 87.1025 70.4639 87.2929 70.4639C87.4833 70.4639 87.6437 70.6242 87.6437 70.8146V134.786C87.6437 134.987 87.4833 135.137 87.2929 135.137" fill="#B7B6B8"/>
<path d="M109.462 131.83C100.272 131.88 94.5889 131.619 86.8718 130.216L86.932 77.2288C95.1001 94.1062 103.148 112.527 109.462 131.83" fill="#8EC641"/>
<path d="M97.5055 100.34C97.4453 100.21 97.3952 100.079 97.3351 99.939H86.912V100.34H97.5055Z" fill="#DDEEC6"/>
<path d="M86.9314 84.3845H90.349C90.2888 84.2543 90.2287 84.124 90.1585 83.9836H86.9314V84.3845Z" fill="#DDEEC6"/>
<path d="M99.7403 105.662C99.6802 105.532 99.63 105.401 99.5799 105.261H86.9119V105.662H99.7503H99.7403Z" fill="#DDEEC6"/>
<path d="M92.8044 89.6965C92.7443 89.5662 92.6841 89.436 92.624 89.2957H86.9314V89.6965H92.8144H92.8044Z" fill="#DDEEC6"/>
<path d="M95.1903 95.0183C95.1302 94.888 95.0701 94.7577 95.0099 94.6174H86.912V95.0183H95.1803H95.1903Z" fill="#DDEEC6"/>
<path d="M107.819 126.939C107.769 126.809 107.729 126.678 107.679 126.538H86.8826V126.939H107.819Z" fill="#DDEEC6"/>
<path d="M105.944 121.617C105.894 121.487 105.854 121.356 105.804 121.216H86.9021V121.617H105.954H105.944Z" fill="#DDEEC6"/>
<path d="M101.896 110.984C101.845 110.853 101.795 110.723 101.735 110.583H86.8923V110.984H101.886H101.896Z" fill="#DDEEC6"/>
<path d="M103.96 116.295C103.91 116.165 103.86 116.035 103.81 115.895H86.8923V116.295H103.96Z" fill="#DDEEC6"/>
<path d="M110.033 134.856C109.883 134.856 109.743 134.756 109.692 134.606C104.892 118.139 97.6758 100.069 86.9721 77.7399C86.8919 77.5595 86.9621 77.349 87.1425 77.2688C87.3229 77.1886 87.5333 77.2688 87.6135 77.4392C98.3373 99.7987 105.563 117.899 110.374 134.405C110.434 134.596 110.324 134.786 110.133 134.846C110.103 134.846 110.063 134.856 110.033 134.856" fill="#E3ECF2"/>
<path d="M54.2692 141.171H112.829V133.935C84.2657 133.935 79.896 134.997 51.7937 134.997C52.0543 137.322 52.6556 138.635 54.2692 141.171Z" fill="#B7B6B8"/>
<path d="M51.7849 134.997C51.8551 135.648 51.9553 136.22 52.1056 136.771C79.9273 136.771 84.3771 135.709 112.83 135.709V133.935C84.2669 133.935 79.8972 134.997 51.7949 134.997" fill="#FAFBFB"/>
<g opacity="0.2">
<g opacity="0.2">
<path opacity="0.2" d="M112.77 54.0176C128.324 64.9518 138.497 83.0319 138.497 103.487C138.497 136.871 111.437 163.941 78.0426 163.941C72.9113 163.941 67.9302 163.3 63.1697 162.097C72.9914 169.002 84.968 173.071 97.8866 173.071C131.271 173.071 158.341 146.001 158.341 112.617C158.341 84.3648 138.958 60.6423 112.76 54.0176" fill="#E9F5F9"/>
</g>
</g>
<path d="M34.2253 112.226H159.984" stroke="#69BEAD" stroke-width="0.77171" stroke-miterlimit="10"/>
<path d="M97.1052 175.106V49.3369" stroke="#69BEAD" stroke-width="0.77171" stroke-miterlimit="10"/>
<path d="M97.1051 172.68C130.493 172.68 157.559 145.614 157.559 112.226C157.559 78.8386 130.493 51.7725 97.1051 51.7725C63.7173 51.7725 36.6511 78.8386 36.6511 112.226C36.6511 145.614 63.7173 172.68 97.1051 172.68Z" stroke="#44B39D" stroke-width="6.80508" stroke-miterlimit="10"/>
<path d="M271.892 61.6642C271.892 61.6642 271.872 65.6531 271.681 70.0628L297.559 69.241C296.446 61.7043 295.344 52.8748 296.356 43.9249C296.827 39.7356 298.681 36.1076 299.202 33.2012C300.054 28.9918 300.435 24.7023 300.355 20.4128C299.894 10.5911 295.274 2.44302 281.413 0.679112C261.839 -1.81642 254.162 9.62894 252.689 17.5064C249.452 34.8849 250.113 43.7947 251.637 49.0262C254.543 59.0184 260.577 60.7222 270.99 61.5841L271.882 61.6642H271.892Z" fill="#FFDBB3"/>
<path fill-rule="evenodd" clip-rule="evenodd" d="M303.832 68.7C303.832 68.7 300.184 66.7957 282.736 67.3871C272.012 67.7479 261.168 69.8425 261.168 69.8425C261.168 69.8425 267.422 78.7823 282.064 77.7801C296.706 76.7779 303.822 68.7 303.822 68.7" fill="#FFDBB3"/>
<path d="M216.86 113.088C211.198 107.376 206.056 101.262 206.056 101.262C202.889 96.2508 201.747 91.2197 201.747 91.2197C201.747 91.2197 200.143 83.1719 198.549 79.3634C198.139 78.3812 197.367 77.1786 197.367 77.1786C194.891 77.6296 196.986 85.7275 196.826 86.7097C196.665 87.6919 189.71 92.0115 180.53 86.5293C176.29 83.9937 175.649 87.2108 178.716 89.5961C179.167 89.9469 178.906 90.2576 179.136 90.8489C179.277 91.2297 179.798 91.6106 179.938 91.7509C183.045 94.8778 189.95 97.7642 194.731 97.1428C194.731 97.1428 200.584 108.879 207.299 120.966L216.87 113.078L216.86 113.088Z" fill="#FFDBB3"/>
<path fill-rule="evenodd" clip-rule="evenodd" d="M248.29 74.8336C233.658 83.9738 231.743 124.814 229.027 124.644C227.434 124.544 220.739 115.153 214.074 107.285C209.364 101.723 203.842 96.8624 203.842 96.8624L200.023 106.965C201.216 109.5 222.513 155.793 234.61 153.327C243.229 151.574 265.418 99.3579 269.637 87.8724C273.747 76.6576 254.704 70.8347 248.3 74.8336" fill="#FFDBB3"/>
<path fill-rule="evenodd" clip-rule="evenodd" d="M230.029 118.981L249.663 130.737L257.54 116.355L253 72.3679C253 72.3679 243.699 73.9214 239.259 86.0382C234.81 98.1651 230.039 118.991 230.039 118.991" fill="#1A1A1B"/>
<g opacity="0.3">
<g opacity="0.3">
<path opacity="0.3" d="M271.702 65.3926C271.702 63.2178 271.662 61.6944 271.662 61.6944L279.239 61.4539C279.239 61.4539 273.456 64.1999 271.702 65.4026" fill="#333333"/>
</g>
</g>
<path d="M262.711 3.54537C265.127 6.02086 271.731 7.15336 277.845 7.46405C285.953 7.87496 287.145 4.73802 289.891 7.27364C293.509 10.611 289.11 18.2279 287.797 23.3893C286.835 27.2379 290.232 32.7902 291.565 33.0708C292.517 33.2712 293.339 31.0263 294.341 30.6153C295.344 30.2044 296.857 30.1142 297.127 32.3492C297.288 33.6922 297.278 35.5663 295.594 38.3826C294.943 39.6053 293.61 40.4371 293.219 41.7701C292.858 42.9928 293.64 44.2556 295.624 44.2155C295.654 43.9549 296.055 43.8747 296.366 43.7545C296.867 39.6654 298.661 36.1175 299.182 33.2612C299.182 33.2612 299.182 33.2412 299.182 33.2311C300.034 29.0218 300.415 24.7323 300.335 20.4428C300.254 18.7491 300.034 17.1054 299.683 15.5319C297.989 8.00525 292.858 2.17233 281.393 0.709086C274.327 -0.192912 266.55 0.839373 262.691 3.56541" fill="#969698"/>
<path d="M281.874 33.2814C281.494 34.2937 280.662 34.885 276.913 34.8148C273.165 34.7346 271.061 34.3538 270.219 33.7324C269.377 33.101 267.863 28.6311 268.455 27.3082C269.046 25.9853 271.612 25.9452 271.612 25.9452C272.333 25.9452 273.456 25.7948 276.723 25.9351C280.161 26.0755 282.005 27.0476 282.275 27.8694C282.546 28.6913 282.255 32.2792 281.874 33.2814V33.2814ZM250.034 26.5365C250.365 25.7347 251.287 24.9129 254.724 25.0432C257.992 25.1634 259.104 25.404 259.816 25.4641C259.816 25.4641 262.371 25.7147 262.862 27.0777C263.343 28.4407 261.479 32.7803 260.587 33.3416C259.695 33.9028 257.571 34.1133 253.822 33.8928C250.074 33.6723 250.295 33.0108 249.994 31.9785C249.693 30.9362 249.693 27.3483 250.024 26.5465L250.034 26.5365ZM265.639 27.2581C266.39 27.2581 266.951 27.5187 266.951 27.5187C266.951 27.5187 267.032 27.669 267.102 28.1501C267.122 28.2904 267.172 28.4207 267.252 28.5309C267.833 29.3126 268.214 31.4574 268.645 32.7302C269.176 34.0431 269.327 34.905 272.003 35.2758C274.679 35.6467 279.209 35.6868 280.972 35.1556C282.736 34.6244 283.017 30.7558 283.237 29.7235C283.508 28.7013 284.33 28.591 284.33 28.591C284.37 28.6211 284.41 27.5988 284.4 26.7069C284.4 26.4763 284.26 26.2659 284.049 26.1657C281.103 24.8127 273.887 24.8327 270.67 25.1634C267.322 25.5042 267.032 26.8171 267.032 26.8171C266.681 26.6567 266.09 26.5766 265.669 26.5465C265.248 26.5465 264.646 26.5766 264.286 26.7169C264.286 26.7169 264.105 25.3839 260.798 24.7826C257.621 24.2013 251.427 23.61 248.39 24.7225C248.17 24.8026 248.019 25.0031 247.999 25.2336C247.919 26.1256 247.869 27.1478 247.919 27.1178C247.919 27.1178 248.731 27.2881 248.911 28.3305C249.042 29.3728 249.012 33.2514 250.735 33.9228C252.449 34.5943 255.967 34.9251 258.663 34.7547C261.359 34.5943 261.579 33.7525 262.211 32.4796C262.752 31.2369 263.293 29.1423 263.935 28.4006C264.025 28.2904 264.085 28.1701 264.115 28.0398C264.225 27.5688 264.316 27.4285 264.316 27.4285C264.316 27.4285 264.897 27.208 265.649 27.2681L265.639 27.2581ZM265.679 26.5064C265.669 26.7971 265.679 26.5565 265.679 26.5565C265.679 26.5565 265.669 26.7971 265.679 26.5064Z" fill="#231F20"/>
<path fill-rule="evenodd" clip-rule="evenodd" d="M320.73 73.9316C316.119 71.5864 309.685 69.592 302.7 68.0686C300.896 70.8748 293.69 74.1521 285.251 74.1521C276.221 74.1521 266.179 71.6365 264.715 68.9004C255.695 70.8949 249.281 73.8815 249.281 73.8815C249.281 73.8815 249.672 94.2967 248.82 120.364C247.968 146.432 243.739 187.804 243.739 187.804H321.962C321.962 187.804 320.73 164.282 320.659 142.834C321.12 139.016 321.141 127.29 322.293 116.787C324.047 100.831 324.889 89.9972 324.889 89.9972C324.889 89.9972 327.805 77.5296 320.74 73.9416" fill="#1A1A1B"/>
<path d="M427.737 250.934V250.964L428.469 253.048L428.85 251.655C428.85 251.655 430.152 244.99 430.734 239.639C434.522 195.24 423.518 171.949 411.351 143.285C411.351 143.285 410.118 141.221 409.998 143.766C409.787 148.156 413.275 210.284 427.737 250.934Z" fill="#19892B"/>
<path d="M421.614 269.244L422.004 262.359C422.145 224.365 410.278 207.728 397.751 195.621C397.721 195.591 397.169 194.96 397.109 195.711C396.538 196.102 400.146 239.418 421.614 269.244Z" fill="#19892B"/>
<path d="M426.644 334.649C426.684 326.732 426.474 318.594 425.973 310.285C423.968 276.641 417.755 246.153 409.095 223.042" stroke="#8EC641" stroke-width="1.56346" stroke-miterlimit="10" stroke-linecap="round"/>
<path d="M415.039 283.175C415.039 283.175 415.119 282.053 415.2 280.589C415.16 280.499 415.119 280.409 415.079 280.319C412.043 256.496 392.9 234.988 374.209 222.22C373.858 221.98 373.527 222 373.237 222.2C372.946 222.4 373.177 222.691 373.207 222.731C386.867 242.766 399.395 264.504 415.039 283.165" fill="#19892B"/>
<path d="M438.12 264.834C464.198 233.395 469.199 198.908 474.04 166.547C474.06 166.436 474.2 165.565 473.99 165.464C473.729 165.334 473.128 165.625 472.526 166.306C454.106 188.395 441.037 213.912 435.985 242.726C433.65 256.025 438.21 261.798 438.12 264.824" fill="#19892B"/>
<path d="M436.617 355.976C435.755 348.109 435.134 339.991 434.773 331.673C432.839 287.274 438.762 247.566 449.466 222.621" stroke="#8EC641" stroke-width="1.56346" stroke-miterlimit="10" stroke-linecap="round"/>
<path d="M418.668 185.869C423.108 204.24 426.385 224.776 428.079 246.544C429.752 268.082 429.722 288.667 428.219 307.359" stroke="#8EC641" stroke-width="1.72382" stroke-miterlimit="10" stroke-linecap="round"/>
<path d="M401.639 258.991C411 271.73 419.699 290.421 426.635 312.931" stroke="#8EC641" stroke-width="1.56346" stroke-miterlimit="10" stroke-linecap="round"/>
<path d="M443.482 378.777C447.321 378.777 450.789 376.492 452.282 372.954C453.434 370.218 453.996 367.181 453.815 364.004L444.024 303.019H410.85L401.058 364.004C400.878 367.181 401.439 370.218 402.592 372.954C404.085 376.492 407.563 378.777 411.391 378.777H443.472H443.482Z" fill="#D9D9DC"/>
<g opacity="0.09">
<g opacity="0.09">
<path opacity="0.09" d="M411.401 378.777H443.482C447.321 378.777 450.789 376.492 452.282 372.954C453.435 370.218 454.006 367.181 453.815 364.004L445.226 310.496C439.634 316.278 434.192 325.399 433.2 339.36C431.646 361.348 416.222 373.225 407.844 378.095C408.956 378.536 410.149 378.777 411.391 378.777" fill="black"/>
</g>
</g>
<path d="M277.214 95.5896C270.679 95.5896 265.378 100.891 265.378 107.426V142.924L277.214 131.088H289.05C295.585 131.088 300.886 125.787 300.886 119.252V95.5896H277.224H277.214ZM289.05 119.252H277.214V107.416H289.05V119.252Z" fill="#8EC641"/>
<path fill-rule="evenodd" clip-rule="evenodd" d="M287.838 145.721L284.891 172.48C284.891 172.48 281.283 173.733 278.036 173.763C274.789 173.783 271.913 172.31 271.913 172.31L268.144 145.861L278.477 145.781L287.838 145.711V145.721Z" fill="#269435"/>
<path fill-rule="evenodd" clip-rule="evenodd" d="M287.797 145.66C287.797 144.839 283.378 144.167 277.925 144.167C272.473 144.167 268.054 144.839 268.054 145.66C268.054 146.482 272.473 147.154 277.925 147.154C283.378 147.154 287.797 146.482 287.797 145.66Z" fill="#E8F4E9"/>
<path fill-rule="evenodd" clip-rule="evenodd" d="M336.486 96.6721C342.589 107.286 359.507 154.34 355.317 162.067C349.264 173.242 298.461 166.557 298.461 166.557C298.461 166.557 288.65 171.267 284.571 171.548C280.762 171.809 274.097 172.851 270.95 168.231C268.806 165.074 268.034 157.116 269.136 154.069C269.477 153.117 273.697 154.26 278.146 154.159C282.706 154.059 286.906 152.907 286.946 152.676C286.946 152.676 287.277 148.607 287.457 148.737C292.618 152.396 299.033 155.332 299.033 155.332C299.033 155.332 327.877 149.9 329.751 147.916C331.344 146.232 320.961 132.983 317.544 116.255C316.942 113.309 316.932 109.831 317.293 107.276C319.688 90.1877 325.912 78.2713 336.486 96.6821" fill="#FFDBB3"/>
<path fill-rule="evenodd" clip-rule="evenodd" d="M323.597 75.7356C323.597 75.7356 326.373 76.8781 331.485 86.9004C337.869 96.8524 347.881 121.607 347.881 121.607L324.018 137.723C324.018 137.723 310.819 116.656 307.893 100.841C304.966 85.0262 309.516 79.2935 313.655 75.906C318.737 70.7245 323.597 75.7456 323.597 75.7456" fill="#1A1A1B"/>
<path d="M336.024 273.814C336.024 273.814 338.841 270.186 338.911 270.166C340.635 269.765 341.958 271.559 343.561 272.191C349.344 273.163 351.92 272.461 356.219 269.916C358.534 268.543 361.701 269.214 362.814 270.597C364.528 272.732 366.642 271.8 368.106 272.862C372.185 275.829 371.393 276.921 372.405 278.585C373.808 280.91 377.126 281.221 374.83 286.372C374.83 286.372 369.97 316.539 370.07 317.311L346.628 310.135C346.387 304.532 344.122 303.37 345.566 298.459C346.227 296.204 345.786 295.853 342.158 294.991C339.372 294.33 340.043 291.062 339.723 290.371C339.061 288.908 338.049 290.211 337.067 288.908C336.365 287.976 337.688 286.813 336.155 286.021C332.146 283.947 333.088 276.971 336.034 273.814" fill="#E4BA79"/>
<path d="M386.315 367.221C389.863 368.143 393.471 368.985 397.029 369.567C398.803 369.897 400.577 370.108 402.331 370.288C404.085 370.479 405.829 370.559 407.532 370.559C409.236 370.559 410.92 370.469 412.543 370.258C414.317 370.048 416.141 368.885 417.955 368.735C419.79 368.584 421.664 369.406 423.478 369.326C424.38 369.276 425.101 368.444 425.993 368.414C426.434 368.394 427.076 369.216 427.497 369.196C427.717 369.196 427.918 369.196 428.128 369.196H428.419C428.489 369.196 428.639 369.186 428.569 369.236C430.042 368.695 431.676 369.456 432.217 370.93C432.758 372.403 431.997 374.036 430.523 374.578L429.611 375.009C429.361 375.119 429.11 375.229 428.87 375.319C428.379 375.51 427.908 375.7 427.437 375.851C426.484 376.171 425.552 376.452 424.6 376.682C422.716 377.153 420.822 377.504 418.938 377.765C417.033 378.035 415.189 378.206 413.235 378.316C411.13 378.406 409.056 378.316 407.031 378.055C402.982 377.534 399.134 376.442 395.486 374.999C391.848 373.495 388.42 371.731 385.233 369.386C384.682 368.985 384.572 368.214 384.972 367.662C385.283 367.241 385.804 367.081 386.275 367.201L386.345 367.221H386.315Z" fill="#E4BA79"/>
<path d="M350.476 372.974C350.557 372.974 350.647 372.974 350.727 372.984C350.777 372.834 350.827 372.694 350.877 372.533C351.118 371.581 351.388 370.659 351.609 369.697L352.22 366.78L352.721 363.824C353.283 360.216 353.724 356.568 354.084 352.9C351.459 351.898 348.913 351.196 346.608 350.715C346.969 345.744 347.63 341.053 348.723 337.656C349.174 336.233 349.705 335 350.326 334.018C350.897 333.106 351.639 332.284 352.521 331.542C353.413 330.791 354.445 330.119 355.568 329.518C355.588 328.856 355.618 328.195 355.638 327.544V327.513C355.698 325.088 357.893 323.194 360.529 323.304C362.563 323.384 364.247 324.627 364.898 326.301C372.395 324.647 379.791 324.557 380.152 324.557C380.152 324.557 380.242 324.737 380.383 325.038L380.363 316.649C382.217 322.342 381.375 330.219 385.945 331.903C390.776 333.687 387.068 338.227 390.265 339.56C394.534 341.344 395.356 347.638 399.234 349.833C401.61 351.186 401.68 355.075 404.767 356.758C408.254 358.662 407.162 369.226 404.727 372.974C403.113 375.46 399.615 373.836 397.711 376.101C395.767 378.416 395.015 378.597 392.029 378.597H380.523L374.389 378.426C373.016 378.817 369.639 377.554 367.985 377.955C365.169 368.013 367.224 360.086 360.829 356.187C360.238 359.134 360.398 362.06 358.845 365.017L358.043 368.063L357.121 371.1C356.79 372.112 356.4 373.135 356.039 374.137C355.828 374.678 355.588 375.219 355.337 375.76C355.818 376.592 356.099 377.554 356.099 378.587V378.607H344.864V378.587C344.864 375.48 347.38 372.964 350.486 372.964" fill="#E0AF64"/>
<path d="M343.651 372.994C343.711 372.703 343.781 372.413 343.832 372.112C343.982 371.04 343.641 369.847 343.832 368.775C343.972 367.983 344.583 365.638 344.583 365.638C344.583 365.638 344.653 363.172 344.262 362.481C343.842 361.729 344.804 361.158 344.814 360.567C344.994 354.683 344.754 348.78 342.328 343.499C339.763 337.906 344.603 329.608 341.987 325.679C339.973 322.662 342.879 317.621 344.834 315.777C346.989 313.753 353.703 318.684 353.954 321.35C353.964 321.48 353.974 321.62 353.974 321.75C353.974 326.371 356.269 331.151 356.129 335.721C355.978 340.282 353.373 344.581 353.072 349.151C352.771 353.711 352.33 358.281 351.729 362.862C351.729 362.862 351.128 365.327 350.987 366.159C350.837 367.051 350.597 369.757 350.597 369.757C350.366 370.909 350.055 372.072 349.785 373.225C349.564 374.056 349.284 374.908 348.993 375.75C349.484 376.582 349.775 377.554 349.775 378.596V378.616H338.54V378.596C338.54 375.67 340.785 373.265 343.651 373.004" fill="#E4BA79"/>
<path d="M405.698 370.288C405.698 378.336 398.061 378.607 389.963 378.607C381.865 378.607 376.393 378.336 376.393 370.288C376.393 362.24 382.948 355.716 391.046 355.716C399.144 355.716 405.698 362.24 405.698 370.288Z" fill="#E4BA79"/>
<path d="M389.673 378.617H378.438V378.597C378.438 375.49 380.954 372.974 384.061 372.974C387.168 372.974 389.683 375.49 389.683 378.597V378.617H389.673Z" fill="#E4BA79"/>
<path d="M343.921 316.579C344.011 316.339 344.112 316.088 344.222 315.847C344.222 315.847 345.615 314.314 345.835 312.28C346.116 309.614 348.14 308.862 348.682 307.639C351.318 301.746 348.511 296.535 350.596 290.341L350.115 282.864L370.42 284.077L370.52 290.241C370.57 293.097 371.743 295.512 372.494 298.258C373.286 301.155 371.302 303.861 375.221 307.028L379.039 313.653C379.61 314.635 380.061 315.647 380.402 316.679C380.893 318.143 381.164 319.646 381.214 321.139C381.354 325.158 378.989 329.307 379.119 333.216C379.41 341.815 371.422 344.671 372.374 349.272C373.306 353.812 370.3 358.071 370.53 363.874L370.7 366.87L370.991 369.837C371.101 370.819 371.282 371.771 371.422 372.744C371.482 373.094 371.562 373.425 371.653 373.766C373.286 374.748 374.389 376.532 374.389 378.586V378.607H369.598C369.438 378.617 369.287 378.617 369.137 378.607H363.154V378.586C363.154 376.642 364.136 374.928 365.639 373.926C365.619 373.856 365.589 373.796 365.579 373.736C365.319 372.693 365.018 371.631 364.787 370.589L364.176 367.462L363.695 364.345C363.114 360.196 362.703 356.047 362.412 351.917C362.121 347.778 361.911 343.649 361.781 339.52C361.781 339.51 361.781 339.5 361.781 339.49C361.731 337.846 360.458 336.493 358.814 336.383C357.822 336.313 356.91 336.162 356.088 335.942C347.88 333.627 342.478 320.438 343.931 316.609" fill="#E4BA79"/>
<path d="M381.044 295.422C381.485 303.64 390.294 314.585 368.506 313.933C360.308 313.683 356.76 305.605 362.332 299.581C366.181 295.422 357.221 281.782 365.409 281.341C373.597 280.9 380.593 287.204 381.034 295.422" fill="#E0AF64"/>
<path d="M337.818 271.419C336.936 272.291 337.367 273.033 338.8 274.486C340.233 275.929 342.117 276.4 342.989 275.528C343.871 274.656 343.42 272.772 341.977 271.329C341.085 270.427 340.023 269.906 339.211 269.906C339.011 269.906 338.139 271.098 337.808 271.429" fill="#603813"/>
<path d="M259.535 46.1299C259.535 46.1299 265.147 46.4706 270.579 46.5408C270.579 46.5408 269.266 51.3314 264.977 51.1009C260.457 50.8704 259.535 46.1299 259.535 46.1299Z" fill="white"/>
<path d="M280.391 129.324C280.391 129.324 277.364 134.055 280.391 136.3C283.418 138.545 280.391 142.433 280.391 142.433" stroke="#E9E9F1" stroke-width="0.801777" stroke-miterlimit="10" stroke-linecap="round"/>
<path d="M274.287 122.459C274.287 122.459 271.261 127.61 274.287 130.066C277.314 132.521 274.287 136.751 274.287 136.751" stroke="#E9E9F1" stroke-width="0.801777" stroke-miterlimit="10" stroke-linecap="round"/>
</g>
<defs>
<clipPath id="clip0_697_951">
<rect width="534.184" height="384.853" fill="white" transform="translate(0.880615 0.386475)"/>
</clipPath>
</defs>
</svg>
