<svg width="272" height="82" viewBox="0 0 272 82" fill="none" xmlns="http://www.w3.org/2000/svg">
<g clip-path="url(#clip0_2062_516)">
<path d="M254.16 0.651123C252.934 0.651123 251.758 1.14102 250.891 2.01304C250.024 2.88505 249.537 4.06776 249.537 5.30098V19.2763L254.16 14.6264H258.776C260.002 14.6264 261.178 14.1365 262.045 13.2645C262.912 12.3925 263.399 11.2098 263.399 9.97653V0.651123H254.16ZM258.776 9.94442H254.16V5.30098H258.776V9.94442Z" fill="#27AA27"/>
<path d="M234.366 22.5325V20.4195L234.787 20.3745H235.19C235.832 20.3502 236.466 20.5154 237.016 20.8498C237.271 21.0459 237.472 21.3051 237.598 21.6022C237.725 21.8992 237.773 22.2241 237.737 22.5453V34.0094H235.33C234.941 34.0094 234.692 33.9002 234.596 33.6883C234.471 33.3966 234.41 33.0811 234.417 32.7634V32.4937C234.215 32.7061 234.002 32.9076 233.779 33.0974C233.51 33.3185 233.221 33.5142 232.917 33.6819C232.568 33.8799 232.194 34.029 231.806 34.125C231.341 34.2462 230.862 34.3045 230.382 34.2984C229.673 34.3471 228.961 34.2376 228.299 33.9778C227.637 33.718 227.04 33.3143 226.551 32.7956C225.642 31.6449 225.187 30.1972 225.274 28.7301V20.4195L225.689 20.3745H226.091C226.733 20.3494 227.368 20.5147 227.917 20.8498C228.172 21.0459 228.373 21.3051 228.499 21.6022C228.626 21.8992 228.674 22.2241 228.639 22.5453V28.7044C228.616 29.0678 228.666 29.4321 228.787 29.7754C228.907 30.1187 229.096 30.4338 229.341 30.7018C229.58 30.9374 229.863 31.1216 230.175 31.2431C230.487 31.3646 230.82 31.4208 231.154 31.4083C231.59 31.4097 232.022 31.3183 232.42 31.1401C232.818 30.9619 233.175 30.7009 233.466 30.3743C233.757 30.0402 233.984 29.6548 234.136 29.2375C234.3 28.7914 234.382 28.3193 234.379 27.8438L234.366 22.5325ZM221.685 33.1681C220.989 33.56 220.253 33.8744 219.489 34.1057C218.67 34.3482 217.82 34.4694 216.967 34.4654C215.665 34.4809 214.373 34.2341 213.168 33.7397C212.049 33.2793 211.038 32.5904 210.199 31.7166C209.364 30.8362 208.713 29.7968 208.283 28.6595C207.808 27.4318 207.571 26.1235 207.587 24.806C207.574 23.4887 207.81 22.1809 208.283 20.9525C208.961 19.16 210.171 17.6206 211.748 16.543C213.326 15.4654 215.194 14.9017 217.101 14.9283C217.942 14.919 218.781 15.0183 219.597 15.2237C220.312 15.4186 221.001 15.7012 221.647 16.065C222.251 16.3817 222.807 16.7816 223.301 17.2532C223.492 17.4459 223.76 17.7285 223.856 17.8505C223.965 17.995 224.051 18.1552 224.112 18.3258C224.175 18.5005 224.188 18.6897 224.15 18.8717C224.081 19.1858 223.91 19.4681 223.665 19.6745C223.133 20.1162 222.57 20.5176 221.979 20.8755C221.441 20.1157 220.768 19.4624 219.993 18.9487C219.117 18.408 218.102 18.1399 217.075 18.178C216.24 18.1635 215.413 18.3483 214.662 18.7175C213.961 19.0625 213.339 19.5502 212.836 20.1497C212.321 20.7661 211.931 21.4772 211.686 22.2435C211.416 23.0571 211.281 23.9097 211.284 24.7675C211.277 25.6129 211.413 26.4533 211.686 27.253C211.929 27.9939 212.316 28.6792 212.823 29.2696C213.313 29.8378 213.915 30.2971 214.591 30.6183C215.316 30.9592 216.109 31.1283 216.909 31.1129C217.592 31.1271 218.272 31.0361 218.927 30.8431C219.855 30.5484 220.689 30.0096 221.34 29.2825C221.602 28.9806 221.845 28.7173 222.062 28.4925C222.584 28.8444 223.084 29.2261 223.563 29.6357C223.686 29.7491 223.803 29.8691 223.914 29.9954C224.01 30.0953 224.082 30.2161 224.124 30.3486C224.162 30.4983 224.162 30.6549 224.124 30.8046C224.079 30.9701 224.015 31.1296 223.933 31.2799C223.845 31.4213 223.744 31.5546 223.633 31.678C223.042 32.2553 222.381 32.7558 221.666 33.1681H221.685ZM205.703 20.3231C205.462 20.2949 205.219 20.2798 204.976 20.2782C204.479 20.2716 203.983 20.3409 203.507 20.4837C203.113 20.6027 202.734 20.7665 202.377 20.9718C202.074 21.1525 201.793 21.368 201.54 21.614C201.332 21.8158 201.135 22.0303 200.953 22.2563C200.95 22.1033 200.935 21.9509 200.908 21.8003C200.863 21.5947 200.773 21.4016 200.645 21.2351C200.517 21.0685 200.354 20.9325 200.168 20.8369C199.736 20.6203 199.258 20.5123 198.776 20.5222H198.297L198.022 20.5608L197.716 20.6121V34.0094H201.087V26.7392C201.081 26.2756 201.172 25.8159 201.355 25.3905C201.532 25.0033 201.779 24.6526 202.083 24.3564C202.399 24.072 202.768 23.8537 203.169 23.7142C203.59 23.5603 204.035 23.482 204.484 23.483C204.766 23.4799 205.048 23.4992 205.327 23.5408C205.566 23.5785 205.8 23.6453 206.023 23.7399C206.138 23.4894 206.521 22.3912 206.629 22.0379C206.722 21.7303 206.761 21.4086 206.744 21.0874C206.737 20.9376 206.684 20.7938 206.591 20.6764C206.493 20.5703 206.373 20.487 206.24 20.4323C206.091 20.3814 205.937 20.349 205.78 20.336L205.703 20.3231ZM171.313 30.3229C172.125 31.1115 173.212 31.5474 174.34 31.5368C174.903 31.5454 175.46 31.4223 175.968 31.1771C176.432 30.9479 176.844 30.6267 177.181 30.233C177.511 29.8423 177.767 29.3938 177.935 28.91C178.106 28.4101 178.193 27.8846 178.19 27.3557C178.196 26.8148 178.134 26.2753 178.005 25.7501C177.895 25.285 177.69 24.8478 177.405 24.4656C177.123 24.0706 176.748 23.7527 176.313 23.5408C175.802 23.3078 175.245 23.1957 174.685 23.2132C174.199 23.2057 173.719 23.3182 173.286 23.5408C172.884 23.7601 172.528 24.0569 172.239 24.4142C171.948 24.7486 171.717 25.131 171.556 25.5446C171.402 25.9242 171.32 26.3293 171.313 26.7392V30.3229ZM167.974 20.5993L168.274 20.5479L168.625 20.5094H169.104C169.589 20.4997 170.068 20.6076 170.503 20.8241C170.688 20.9208 170.851 21.0571 170.979 21.2235C171.107 21.3899 171.197 21.5823 171.243 21.7875C171.263 21.887 171.276 21.9879 171.281 22.0893C171.489 21.8565 171.715 21.6416 171.958 21.4471C172.238 21.218 172.545 21.0239 172.871 20.869C173.255 20.6878 173.655 20.5437 174.065 20.4387C174.556 20.3182 175.06 20.2599 175.566 20.2653C176.445 20.238 177.317 20.426 178.108 20.8131C178.899 21.2002 179.585 21.7748 180.106 22.4875C180.61 23.1621 180.986 23.924 181.217 24.7354C181.465 25.5841 181.59 26.4646 181.587 27.3493C181.612 28.2716 181.458 29.19 181.134 30.0532C180.85 30.749 180.465 31.3984 179.991 31.9799C179.333 32.8232 178.474 33.4859 177.494 33.9066C176.61 34.2674 175.665 34.4528 174.71 34.4525C173.496 34.4273 172.315 34.0456 171.313 33.3543V38.0299C171.163 38.0778 171.006 38.1037 170.847 38.1069C170.617 38.1069 170.362 38.1069 170.087 38.1069C169.817 38.107 169.547 38.0769 169.283 38.017C169.037 37.9645 168.808 37.8545 168.613 37.6959C168.403 37.5271 168.242 37.3055 168.146 37.0536C168.02 36.7308 167.962 36.3855 167.974 36.0389V20.5993ZM241.096 20.5608V17.8184C241.084 17.5148 241.152 17.2134 241.294 16.9449C241.421 16.7254 241.601 16.542 241.817 16.4119C242.038 16.2818 242.28 16.1946 242.533 16.155C242.804 16.1011 243.08 16.071 243.356 16.065H243.752L244.129 16.0972L244.499 16.1421V20.5608H248.279L245.54 23.316H244.499V29.199C244.463 29.8119 244.596 30.423 244.882 30.9652C245.037 31.1933 245.251 31.374 245.501 31.4873C245.751 31.6007 246.028 31.6422 246.3 31.6074C246.533 31.6089 246.765 31.5675 246.983 31.4854C247.187 31.4148 247.384 31.3245 247.57 31.2156C247.73 31.1264 247.882 31.0233 248.024 30.9073C248.151 30.7982 248.241 30.7147 248.292 30.6633C248.513 30.9927 248.714 31.3359 248.892 31.6909C249.021 31.9458 249.091 32.2269 249.096 32.513C249.09 32.7685 248.995 33.0138 248.828 33.2066C248.614 33.4656 248.354 33.6832 248.062 33.8488C247.688 34.0586 247.286 34.2143 246.868 34.3113C246.368 34.4423 245.852 34.5028 245.336 34.4911C244.706 34.4892 244.083 34.3694 243.497 34.1378C242.939 33.9087 242.45 33.5368 242.079 33.0589C241.716 32.5941 241.459 32.0548 241.326 31.4789C241.167 30.8057 241.09 30.1156 241.096 29.4238V23.2967H238.816V20.5608H241.096ZM162.847 29.2375C162.848 29.5814 162.755 29.9191 162.579 30.2137C162.394 30.5235 162.157 30.7975 161.876 31.023C161.26 31.5118 160.497 31.7746 159.712 31.768C159.07 31.8151 158.431 31.6431 157.898 31.2799C157.693 31.1224 157.528 30.9179 157.417 30.6833C157.306 30.4487 157.252 30.1908 157.26 29.9311C157.26 29.6531 157.317 29.378 157.426 29.1229C157.536 28.8677 157.697 28.6379 157.898 28.4475C158.552 27.9501 159.369 27.7206 160.184 27.8053H160.944L161.787 27.8503L162.783 27.9081L162.847 29.2375ZM156.206 20.8883C155.856 21.0484 155.535 21.2653 155.255 21.5306C155.158 21.6073 155.079 21.7047 155.024 21.8157C154.969 21.9267 154.939 22.0487 154.936 22.1728C154.979 22.4175 155.065 22.6524 155.191 22.8664C155.45 23.3252 155.779 23.7393 156.168 24.0931C156.648 23.7795 157.154 23.5087 157.681 23.2839C158.409 23.0097 159.184 22.8831 159.961 22.9114C160.7 22.8771 161.431 23.0795 162.049 23.4894C162.302 23.6621 162.508 23.8962 162.647 24.1701C162.787 24.444 162.855 24.7489 162.847 25.0565V25.3712L161.793 25.3134L160.848 25.2684H159.961C159.152 25.2585 158.346 25.3645 157.566 25.5831C156.893 25.7696 156.262 26.0859 155.708 26.5144C155.201 26.9261 154.791 27.446 154.508 28.0365C154.216 28.6814 154.07 29.3833 154.08 30.0917C154.069 30.7575 154.211 31.4168 154.495 32.0184C154.75 32.549 155.121 33.0145 155.581 33.38C156.022 33.7357 156.527 34.0037 157.068 34.17C157.598 34.3427 158.152 34.4316 158.709 34.4333C159.565 34.445 160.413 34.2674 161.193 33.9131C161.821 33.656 162.386 33.2635 162.847 32.7634C162.831 33.0855 162.883 33.4072 163 33.7075C163.102 33.9195 163.345 34.0287 163.734 34.0287H166.097V24.9601C166.102 24.2845 165.967 23.6152 165.701 22.9949C165.438 22.4006 165.048 21.8721 164.558 21.4471C164.034 20.9959 163.426 20.6532 162.77 20.4387C162.02 20.1908 161.235 20.0693 160.446 20.0791C159.742 20.0704 159.04 20.1241 158.345 20.2396C158.111 20.2749 157.879 20.3221 157.649 20.3809C157.163 20.5045 156.688 20.6721 156.232 20.8819L156.206 20.8883ZM153.633 19.9699C153.407 19.1779 153.017 18.4427 152.49 17.812C151.872 17.0892 151.105 16.5106 150.243 16.1164C149.087 15.6091 147.831 15.372 146.571 15.4228H143.111C142.845 15.4218 142.58 15.4433 142.319 15.487C142.066 15.5238 141.823 15.6111 141.604 15.7439C141.389 15.8734 141.209 16.0543 141.08 16.2706C140.937 16.5406 140.868 16.8446 140.882 17.1504V34.0094H144.388V28.8714H146.859C147.711 28.8678 148.559 28.738 149.374 28.4861C150.208 28.2388 150.987 27.8309 151.667 27.2851C152.366 26.7194 152.93 26.0041 153.32 25.1914C153.77 24.2304 153.989 23.1766 153.959 22.115C153.946 21.3995 153.839 20.6889 153.64 20.002L153.633 19.9699ZM149.24 24.8317C148.88 25.1706 148.456 25.4333 147.993 25.6043C147.53 25.7753 147.038 25.8511 146.546 25.8272H144.388V18.4542H146.546C147.039 18.4378 147.53 18.5241 147.989 18.7076C148.447 18.8911 148.863 19.1679 149.21 19.5207C149.557 19.8734 149.828 20.2945 150.006 20.7575C150.183 21.2205 150.264 21.7155 150.243 22.2113C150.26 22.6858 150.179 23.1587 150.007 23.6007C149.835 24.0426 149.574 24.4441 149.24 24.7803V24.8317ZM250.635 32.6671H250.163V32.4423H251.344V32.6671H250.871V33.9901H250.635V32.6671ZM252.698 32.9946L252.385 33.7975H252.085L251.759 32.9368V33.9901H251.51V32.4616H251.804L252.238 33.6369L252.678 32.4616H252.934V34.0094H252.685L252.698 32.9946ZM194.012 29.9697C194.403 30.3346 194.772 30.7228 195.117 31.1321C195.208 31.2375 195.291 31.3491 195.366 31.4661C195.429 31.5646 195.474 31.6732 195.5 31.7872C195.52 31.9143 195.509 32.0442 195.468 32.1662C195.413 32.2997 195.34 32.4251 195.251 32.5387C195.164 32.6492 195.065 32.7503 194.957 32.8405C194.202 33.4401 193.333 33.8773 192.403 34.125C191.527 34.3734 190.619 34.4903 189.709 34.4718C188.712 34.4861 187.722 34.3005 186.797 33.9259C185.954 33.5853 185.19 33.0712 184.556 32.4166C183.923 31.7585 183.435 30.9726 183.126 30.111C182.785 29.1531 182.616 28.1418 182.628 27.1245C182.619 26.1764 182.788 25.2352 183.126 24.35C183.443 23.5247 183.918 22.7698 184.524 22.1278C185.132 21.4889 185.862 20.9799 186.67 20.6314C187.54 20.2605 188.477 20.0746 189.422 20.0855C190.493 20.052 191.556 20.2836 192.518 20.7599C193.329 21.1774 194.029 21.7828 194.561 22.526C195.083 23.2729 195.46 24.1117 195.673 24.9987C195.903 25.9184 196.018 26.8633 196.017 27.8117V28.2677H185.986C185.979 28.7386 186.094 29.2032 186.318 29.6164C186.526 30.0246 186.815 30.3853 187.168 30.6761C187.525 30.9598 187.929 31.1773 188.362 31.3184C188.789 31.4688 189.237 31.5469 189.69 31.5496C190.707 31.5635 191.713 31.3439 192.633 30.9073C192.934 30.771 193.217 30.5984 193.476 30.3936C193.693 30.2137 193.859 30.066 193.974 29.9504L194.012 29.9697ZM192.518 25.8143C192.514 25.4605 192.447 25.1103 192.32 24.7803C192.185 24.435 191.986 24.1189 191.733 23.8491C191.454 23.5545 191.12 23.3187 190.75 23.1554C190.316 22.9689 189.848 22.8769 189.377 22.8857C188.874 22.8767 188.375 22.9684 187.908 23.1554C187.511 23.3183 187.148 23.5535 186.836 23.8491C186.566 24.1161 186.35 24.4321 186.197 24.7803C186.053 25.1061 185.977 25.4579 185.974 25.8143H192.518Z" fill="white"/>
<path d="M110.075 55.9997H126.708V75.3249C124.598 77.2442 122.174 78.7825 119.544 79.872C116.564 81.1565 112.758 81.8094 108.127 81.8309C104.631 81.8929 101.157 81.2509 97.9109 79.9426C95.0492 78.7719 92.4567 77.0232 90.2935 74.8047C88.1873 72.6067 86.5529 69.9965 85.4919 67.1363C84.3571 64.0941 83.79 60.8674 83.8191 57.6182C83.7959 54.3402 84.3872 51.0871 85.5622 48.0295C86.671 45.118 88.337 42.4537 90.4659 40.1876C92.6863 37.8453 95.3635 35.9894 98.33 34.7362C101.297 33.483 104.488 32.8594 107.706 32.9046C109.816 32.8871 111.92 33.1353 113.969 33.6432C115.772 34.0958 117.512 34.7665 119.154 35.6405C120.667 36.4394 122.067 37.4372 123.317 38.6077C124.496 39.7266 125.565 40.9568 126.51 42.2814L120.316 47.8111C118.93 45.7667 117.168 44.0075 115.125 42.6282C112.9 41.2641 110.322 40.5937 107.718 40.7014C105.606 40.6578 103.512 41.1155 101.608 42.0373C99.8313 42.9164 98.2551 44.1563 96.9787 45.6788C95.6725 47.2454 94.6795 49.0511 94.0543 50.9966C93.3753 53.0686 93.0346 55.2375 93.0455 57.4191C93.0071 59.7424 93.4214 62.0509 94.265 64.2141C95.0234 66.1363 96.1517 67.8889 97.5853 69.3713C98.987 70.811 100.67 71.9437 102.527 72.6981C104.417 73.471 106.439 73.8637 108.478 73.8542C112.735 73.8542 116.028 72.8266 118.356 70.7714V63.4883H110.055L110.075 55.9997Z" fill="white"/>
<path d="M133.386 47.8818H141.253L141.463 52.0115C141.903 51.4661 142.379 50.9511 142.887 50.4701C143.511 49.8782 144.201 49.361 144.943 48.9287C145.811 48.4301 146.732 48.0316 147.689 47.7405C148.854 47.3974 150.063 47.2329 151.277 47.2524C151.986 47.246 152.695 47.2933 153.397 47.3937C154.05 47.4926 154.692 47.6561 155.313 47.8818L153.64 55.653C153.093 55.4221 152.521 55.2582 151.935 55.1649C151.257 55.0625 150.571 55.0152 149.885 55.0236C148.797 55.0209 147.716 55.2101 146.693 55.5823C145.709 55.9223 144.804 56.4622 144.037 57.1687C143.253 57.9083 142.631 58.8046 142.213 59.8001C141.794 60.7955 141.586 61.8681 141.604 62.9489V80.662H133.386V47.8818Z" fill="white"/>
<path d="M156.008 64.2335C155.993 61.9214 156.427 59.6286 157.285 57.4835C158.111 55.4111 159.33 53.52 160.874 51.9152C162.454 50.3116 164.335 49.0409 166.409 48.1773C170.984 46.3022 176.106 46.3022 180.68 48.1773C182.743 49.0428 184.612 50.3158 186.177 51.9209C187.742 53.526 188.971 55.4306 189.792 57.522C191.506 61.8524 191.506 66.6788 189.792 71.0092C188.966 73.0897 187.75 74.9911 186.21 76.6096C184.644 78.2463 182.762 79.5444 180.68 80.4245C176.104 82.2915 170.985 82.2915 166.409 80.4245C164.327 79.5444 162.446 78.2463 160.88 76.6096C159.34 74.9896 158.122 73.0888 157.292 71.0092C156.428 68.8565 155.992 66.5546 156.008 64.2335ZM173.542 74.67C174.97 74.7034 176.383 74.3766 177.654 73.7195C178.784 73.1126 179.769 72.2643 180.54 71.234C181.299 70.2235 181.876 69.0866 182.244 67.875C182.609 66.6959 182.797 65.4684 182.8 64.2335C182.791 63.0116 182.604 61.7977 182.244 60.6305C181.884 59.4157 181.307 58.2773 180.54 57.2715C179.759 56.2593 178.776 55.4235 177.654 54.8182C176.372 54.1968 174.967 53.8741 173.545 53.8741C172.122 53.8741 170.718 54.1968 169.436 54.8182C168.314 55.4235 167.33 56.2593 166.55 57.2715C165.771 58.2831 165.184 59.4305 164.82 60.6562C164.46 61.8234 164.273 63.0373 164.264 64.2592C164.267 65.4941 164.454 66.7216 164.82 67.9007C165.188 69.1122 165.765 70.2492 166.524 71.2597C167.295 72.29 168.28 73.1383 169.41 73.7451C170.686 74.4065 172.107 74.7334 173.542 74.6957V74.67Z" fill="white"/>
<path d="M191.636 47.8818H200.684L206.961 70.7008L213.85 47.8818H220.74L227.699 70.7008L233.893 47.8818H242.526L231.46 80.7134H223.511L216.832 60.9001L210.358 80.7134H202.695L191.636 47.8818Z" fill="white"/>
<path d="M248.082 71.3303C249.194 72.4282 250.505 73.3004 251.945 73.8993C253.629 74.6038 255.44 74.9493 257.264 74.914C258.712 74.971 260.156 74.7329 261.51 74.214C261.986 74.0514 262.399 73.7401 262.687 73.3253C262.975 72.9106 263.124 72.4142 263.112 71.9083C263.114 71.4646 263.018 71.026 262.832 70.6238C262.555 70.1336 262.145 69.7327 261.65 69.4678C260.857 69.0082 260.018 68.6336 259.147 68.3503C257.729 67.8798 256.289 67.4811 254.831 67.1557C253.649 66.8571 252.487 66.4839 251.351 66.0382C250.138 65.565 249 64.9159 247.973 64.1115C246.944 63.3034 246.077 62.305 245.419 61.17C244.721 59.9232 244.373 58.5093 244.411 57.0789C244.374 55.5291 244.777 54.0009 245.573 52.6731C246.367 51.394 247.423 50.2994 248.669 49.4618C249.997 48.5766 251.453 47.9049 252.986 47.4709C254.557 47.0052 256.187 46.7674 257.826 46.7644C260.304 46.715 262.777 47.0221 265.168 47.6764C267.132 48.2604 268.979 49.1841 270.628 50.4059L266.382 56.2183C265.309 55.4645 264.138 54.8636 262.902 54.4328C261.27 53.8672 259.551 53.5955 257.826 53.63C255.88 53.63 254.522 53.9212 253.752 54.5035C253.403 54.7386 253.116 55.0556 252.916 55.427C252.716 55.7984 252.608 56.2132 252.603 56.6357C252.603 57.6633 253.241 58.4725 254.518 59.0506C256.443 59.8454 258.435 60.4665 260.469 60.9067C261.997 61.2383 263.493 61.7069 264.939 62.3068C266.181 62.8163 267.332 63.5256 268.348 64.4069C269.282 65.2283 270.029 66.2425 270.538 67.3805C271.078 68.6767 271.339 70.0731 271.305 71.478C271.325 72.9867 270.942 74.4732 270.194 75.7811C269.437 77.0789 268.404 78.1912 267.167 79.0373C265.798 79.9642 264.288 80.6626 262.697 81.1053C260.942 81.602 259.126 81.8484 257.302 81.8374C254.483 81.8806 251.677 81.4464 249.001 80.553C246.733 79.8042 244.695 78.4765 243.089 76.6995L248.082 71.3303Z" fill="white"/>
<path d="M32.0744 52.8016H17.3887C14.257 52.8671 11.235 53.9737 8.79436 55.9486C3.90978 59.9305 3.04779 65.7171 2.03257 72.4222C1.66223 74.7664 1.31744 77.2005 0.761935 79.6475C0.714267 79.8512 0.713472 80.0631 0.759612 80.2672C0.805751 80.4712 0.897606 80.662 1.02817 80.8249C1.15874 80.9878 1.32457 81.1186 1.51302 81.2073C1.70146 81.296 1.90755 81.3402 2.11557 81.3366C5.78699 81.2595 9.44564 81.6962 13.1107 81.8118C19.0488 82.0045 25.4147 81.0411 29.2075 75.9481C31.054 73.4549 32.0566 70.4317 32.068 67.3228L32.0744 52.8016Z" fill="#33C2AF"/>
<path d="M40.3109 52.7502H54.9966C58.1331 52.8092 61.1619 53.9113 63.6101 55.8843C68.4946 59.8727 69.3566 65.6593 70.3719 72.3579C70.7422 74.7086 71.087 77.1363 71.6489 79.5832C71.6954 79.7873 71.6951 79.9994 71.6481 80.2034C71.6011 80.4074 71.5086 80.598 71.3776 80.7607C71.2466 80.9234 71.0805 81.0541 70.8918 81.1427C70.7032 81.2313 70.497 81.2757 70.2889 81.2723C66.6174 81.1952 62.9652 81.632 59.3001 81.7476C53.362 81.9402 46.9961 80.9769 43.197 75.8839C41.3463 73.3937 40.3351 70.3739 40.3109 67.2649V52.7502Z" fill="#27AA27"/>
<path d="M32.0739 44.4587H17.3882C14.2648 44.3979 11.2493 43.298 8.81306 41.331C3.9157 37.3234 3.03456 31.5368 2.0321 24.8381C1.66177 22.4875 1.31697 20.0598 0.761472 17.6129C0.711941 17.4095 0.710396 17.1973 0.756961 16.9932C0.803525 16.7891 0.896908 16.5988 1.02965 16.4376C1.15915 16.2738 1.32445 16.1422 1.5127 16.0531C1.70095 15.964 1.90709 15.9197 2.11511 15.9238C5.78653 16.0008 9.44518 15.5641 13.1102 15.4485C19.0483 15.2558 25.4143 16.2192 29.207 21.3122C31.0544 23.8074 32.057 26.8329 32.0675 29.944L32.0739 44.4587Z" fill="#27AA27"/>
<path d="M40.3109 44.5037H54.9966C58.1221 44.4376 61.1386 43.3359 63.5781 41.3696C68.4627 37.3876 69.3247 31.601 70.3399 24.896C70.7103 22.5518 71.0551 20.1177 71.6169 17.6771C71.6655 17.4727 71.6666 17.2597 71.6201 17.0547C71.5736 16.8498 71.4807 16.6584 71.3488 16.4954C71.217 16.3325 71.0504 16.2018 70.8613 16.1128C70.6722 16.0238 70.4656 15.979 70.2569 15.9816C66.5855 16.0651 62.9332 15.6284 59.2682 15.5127C53.3301 15.3201 46.9642 16.277 43.165 21.3765C41.3258 23.8682 40.3259 26.8856 40.3109 29.989V44.5037Z" fill="#8EC741"/>
</g>
<defs>
<clipPath id="clip0_2062_516">
<rect width="270.6" height="81.1799" fill="white" transform="translate(0.723145 0.651123)"/>
</clipPath>
</defs>
</svg>
